AdventPro-thn_wd_it.ufo
<glyph name="exclam" format="2">
  <advance width="118"/>
  <unicode hex="0021"/>
  <outline>
    <contour>
      <point x="189" y="692" type="line"/>
      <point x="192" y="704"/>
      <point x="202" y="710"/>
      <point x="211" y="710" type="curve" smooth="yes"/>
      <point x="221" y="710"/>
      <point x="224" y="704"/>
      <point x="221" y="692" type="curve"/>
      <point x="92" y="121" type="line"/>
      <point x="77" y="121" type="line"/>
    </contour>
    <contour>
      <point x="79" y="18" type="curve" smooth="yes"/>
      <point x="77" y="9"/>
      <point x="69" y="0"/>
      <point x="59" y="0" type="curve" smooth="yes"/>
      <point x="50" y="0"/>
      <point x="43" y="9"/>
      <point x="45" y="18" type="curve" smooth="yes"/>
      <point x="47" y="26"/>
      <point x="57" y="34"/>
      <point x="66" y="34" type="curve" smooth="yes"/>
      <point x="76" y="34"/>
      <point x="81" y="26"/>
    </contour>
  </outline>
</glyph>
<glyph name="dollar" format="2">
  <advance width="767"/>
  <unicode hex="0024"/>
  <outline>
    <component base="S" xOffset="2.1966"/>
    <contour>
      <point x="365" y="-114" type="line"/>
      <point x="563" y="818" type="line"/>
      <point x="582" y="818" type="line"/>
      <point x="384" y="-114" type="line"/>
    </contour>
  </outline>
</glyph>
<glyph name="parenleft" format="1">
  <advance width="255" height="962"/>
  <unicode hex="0028"/>
  <outline>
    <contour>
      <point x="401" y="800" type="line"/>
      <point x="309" y="760"/>
      <point x="245" y="731"/>
      <point x="225" y="637" type="curve" smooth="yes"/>
      <point x="157" y="315"/>
      <point x="123" y="156"/>
      <point x="104" y="65" type="curve" smooth="yes"/>
      <point x="79" y="-50"/>
      <point x="174" y="-81"/>
      <point x="211" y="-102" type="curve"/>
      <point x="190" y="-120" type="line"/>
      <point x="90" y="-71"/>
      <point x="55" y="-31"/>
      <point x="77" y="69" type="curve" smooth="yes"/>
      <point x="195" y="627" type="line" smooth="yes"/>
      <point x="216" y="725"/>
      <point x="270" y="769"/>
      <point x="389" y="816" type="curve"/>
    </contour>
  </outline>
</glyph>
<glyph name="parenright" format="2">
  <advance width="255"/>
  <unicode hex="0029"/>
  <outline>
    <contour>
      <point x="203" y="800" type="line"/>
      <point x="279" y="760"/>
      <point x="328" y="731"/>
      <point x="308" y="637" type="curve" smooth="yes"/>
      <point x="187" y="65" type="line" smooth="yes"/>
      <point x="162" y="-50"/>
      <point x="56" y="-81"/>
      <point x="9" y="-102" type="curve"/>
      <point x="13" y="-120" type="line"/>
      <point x="135" y="-71"/>
      <point x="186" y="-31"/>
      <point x="208" y="69" type="curve" smooth="yes"/>
      <point x="326" y="627" type="line" smooth="yes"/>
      <point x="347" y="725"/>
      <point x="311" y="769"/>
      <point x="212" y="816" type="curve"/>
    </contour>
  </outline>
</glyph>
<glyph name="asterisk" format="1">
  <advance width="337" height="962"/>
  <unicode hex="002A"/>
  <outline>
    <contour>
      <point x="160" y="614" type="line"/>
      <point x="276" y="563" type="line"/>
      <point x="304" y="700" type="line"/>
      <point x="326" y="700" type="line"/>
      <point x="296" y="563" type="line"/>
      <point x="437" y="614" type="line"/>
      <point x="439" y="594" type="line"/>
      <point x="299" y="548" type="line"/>
      <point x="359" y="441" type="line"/>
      <point x="340" y="428" type="line"/>
      <point x="281" y="538" type="line"/>
      <point x="180" y="428" type="line"/>
      <point x="165" y="441" type="line"/>
      <point x="267" y="548" type="line"/>
      <point x="148" y="594" type="line"/>
    </contour>
  </outline>
</glyph>
<glyph name="plus" format="2">
  <advance width="566"/>
  <unicode hex="002B"/>
  <outline>
    <contour>
      <point x="409" y="530" type="line"/>
      <point x="377" y="380" type="line"/>
      <point x="602" y="380" type="line"/>
      <point x="598" y="361" type="line"/>
      <point x="373" y="361" type="line"/>
      <point x="341" y="210" type="line"/>
      <point x="312" y="210" type="line"/>
      <point x="344" y="361" type="line"/>
      <point x="118" y="361" type="line"/>
      <point x="122" y="380" type="line"/>
      <point x="348" y="380" type="line"/>
      <point x="380" y="530" type="line"/>
    </contour>
  </outline>
</glyph>
<glyph name="zero" format="1">
  <advance width="732" height="962"/>
  <unicode hex="0030"/>
  <outline>
    <contour>
      <point x="139" y="498" type="line" smooth="yes"/>
      <point x="169" y="638"/>
      <point x="306" y="719"/>
      <point x="504" y="719" type="curve" smooth="yes"/>
      <point x="700" y="719"/>
      <point x="799" y="638"/>
      <point x="769" y="497" type="curve" smooth="yes"/>
      <point x="705" y="196" type="line" smooth="yes"/>
      <point x="676" y="63"/>
      <point x="534" y="-14"/>
      <point x="347" y="-14" type="curve" smooth="yes"/>
      <point x="171" y="-14"/>
      <point x="45" y="56"/>
      <point x="75" y="196" type="curve" smooth="yes"/>
    </contour>
    <contour>
      <point x="94" y="195" type="line" smooth="yes"/>
      <point x="67" y="66"/>
      <point x="192" y="5"/>
      <point x="351" y="5" type="curve" smooth="yes"/>
      <point x="513" y="5"/>
      <point x="658" y="66"/>
      <point x="685" y="195" type="curve" smooth="yes"/>
      <point x="750" y="500" type="line" smooth="yes"/>
      <point x="776" y="623"/>
      <point x="687" y="699"/>
      <point x="500" y="699" type="curve" smooth="yes"/>
      <point x="309" y="699"/>
      <point x="185" y="622"/>
      <point x="158" y="498" type="curve" smooth="yes"/>
    </contour>
  </outline>
</glyph>
<glyph name="three" format="2">
  <advance width="635" height="962"/>
  <unicode hex="0033"/>
  <outline>
    <contour>
      <point x="398" y="414" type="line" smooth="yes"/>
      <point x="575" y="414"/>
      <point x="681" y="340"/>
      <point x="651" y="202" type="curve" smooth="yes"/>
      <point x="623" y="73"/>
      <point x="482" y="-12"/>
      <point x="292" y="-12" type="curve" smooth="yes"/>
      <point x="169" y="-12"/>
      <point x="88" y="25"/>
      <point x="41" y="82" type="curve"/>
      <point x="63" y="95" type="line"/>
      <point x="109" y="37"/>
      <point x="192" y="7"/>
      <point x="287" y="7" type="curve" smooth="yes"/>
      <point x="474" y="7"/>
      <point x="606" y="83"/>
      <point x="633" y="208" type="curve" smooth="yes"/>
      <point x="659" y="325"/>
      <point x="554" y="394"/>
      <point x="403" y="394" type="curve" smooth="yes"/>
      <point x="256" y="394" type="line"/>
      <point x="643" y="680" type="line"/>
      <point x="235" y="680" type="line"/>
      <point x="239" y="700" type="line"/>
      <point x="674" y="700" type="line"/>
      <point x="670" y="680" type="line"/>
      <point x="313" y="414" type="line"/>
    </contour>
  </outline>
</glyph>
<glyph name="four" format="2">
  <advance width="677" height="962"/>
  <unicode hex="0034"/>
  <outline>
    <contour>
      <point x="517" y="0" type="line"/>
      <point x="602" y="394" type="line"/>
      <point x="97" y="394" type="line"/>
      <point x="420" y="700" type="line"/>
      <point x="443" y="700" type="line"/>
      <point x="141" y="412" type="line"/>
      <point x="606" y="412" type="line"/>
      <point x="667" y="700" type="line"/>
      <point x="685" y="700" type="line"/>
      <point x="624" y="412" type="line"/>
      <point x="734" y="412" type="line"/>
      <point x="724" y="394" type="line"/>
      <point x="620" y="394" type="line"/>
      <point x="536" y="0" type="line"/>
    </contour>
  </outline>
</glyph>
<glyph name="five" format="1">
  <advance width="634" height="962"/>
  <unicode hex="0035"/>
  <outline>
    <contour>
      <point x="185" y="412" type="line"/>
      <point x="356" y="414" type="line" smooth="yes"/>
      <point x="601" y="417"/>
      <point x="673" y="330"/>
      <point x="645" y="199" type="curve" smooth="yes"/>
      <point x="617" y="66"/>
      <point x="458" y="-12"/>
      <point x="285" y="-12" type="curve" smooth="yes"/>
      <point x="133" y="-12"/>
      <point x="36" y="44"/>
      <point x="36" y="42" type="curve"/>
      <point x="48" y="59" type="line"/>
      <point x="47" y="61"/>
      <point x="147" y="7"/>
      <point x="288" y="7" type="curve" smooth="yes"/>
      <point x="432" y="7"/>
      <point x="597" y="67"/>
      <point x="626" y="200" type="curve" smooth="yes"/>
      <point x="648" y="308"/>
      <point x="590" y="394"/>
      <point x="353" y="394" type="curve" smooth="yes"/>
      <point x="156" y="394" type="line"/>
      <point x="271" y="700" type="line"/>
      <point x="670" y="700" type="line"/>
      <point x="666" y="680" type="line"/>
      <point x="285" y="680" type="line"/>
    </contour>
  </outline>
</glyph>
<glyph name="seven" format="1">
  <advance width="626" height="962"/>
  <unicode hex="0037"/>
  <outline>
    <contour>
      <point x="72" y="0" type="line"/>
      <point x="50" y="0" type="line"/>
      <point x="732" y="680" type="line"/>
      <point x="171" y="680" type="line"/>
      <point x="175" y="700" type="line"/>
      <point x="763" y="700" type="line"/>
      <point x="759" y="680" type="line"/>
    </contour>
  </outline>
</glyph>
<glyph name="semicolon" format="1">
  <advance width="123" height="962"/>
  <unicode hex="003B"/>
  <outline>
    <contour>
      <point x="49" y="68" type="line"/>
      <point x="72" y="87"/>
      <point x="82" y="110"/>
      <point x="86" y="124" type="curve"/>
      <point x="81" y="126"/>
      <point x="77" y="133"/>
      <point x="79" y="141" type="curve" smooth="yes"/>
      <point x="81" y="149"/>
      <point x="90" y="157"/>
      <point x="98" y="157" type="curve" smooth="yes"/>
      <point x="109" y="157"/>
      <point x="114" y="151"/>
      <point x="112" y="141" type="curve"/>
      <point x="101" y="87"/>
      <point x="56" y="63"/>
      <point x="56" y="63" type="curve"/>
    </contour>
    <contour>
      <point x="165" y="385" type="curve" smooth="yes"/>
      <point x="163" y="376"/>
      <point x="153" y="368"/>
      <point x="145" y="368" type="curve" smooth="yes"/>
      <point x="136" y="368"/>
      <point x="129" y="376"/>
      <point x="131" y="385" type="curve" smooth="yes"/>
      <point x="133" y="395"/>
      <point x="143" y="401"/>
      <point x="152" y="401" type="curve" smooth="yes"/>
      <point x="160" y="401"/>
      <point x="167" y="395"/>
    </contour>
  </outline>
</glyph>
<glyph name="less" format="2">
  <advance width="525" height="962"/>
  <unicode hex="003C"/>
  <outline>
    <contour>
      <point x="114" y="359" type="line"/>
      <point x="590" y="637" type="line"/>
      <point x="609" y="625" type="line"/>
      <point x="150" y="357" type="line"/>
      <point x="496" y="95" type="line"/>
      <point x="472" y="79" type="line"/>
    </contour>
  </outline>
</glyph>
<glyph name="equal" format="2">
  <advance width="387"/>
  <unicode hex="003D"/>
  <outline>
    <contour>
      <point x="115" y="394" type="line"/>
      <point x="119" y="412" type="line"/>
      <point x="440" y="412" type="line"/>
      <point x="436" y="394" type="line"/>
    </contour>
    <contour>
      <point x="93" y="289" type="line"/>
      <point x="97" y="308" type="line"/>
      <point x="418" y="308" type="line"/>
      <point x="414" y="289" type="line"/>
    </contour>
  </outline>
</glyph>
<glyph name="question" format="2">
  <advance width="586" height="962"/>
  <unicode hex="003F"/>
  <outline>
    <contour>
      <point x="138" y="532" type="line"/>
      <point x="164" y="651"/>
      <point x="311.011" y="710.97"/>
      <point x="443" y="709" type="curve" smooth="yes"/>
      <point x="577" y="707"/>
      <point x="692.467" y="644.115"/>
      <point x="670" y="537" type="curve" smooth="yes"/>
      <point x="654.701" y="464.062"/>
      <point x="600" y="427"/>
      <point x="524" y="376" type="curve" smooth="yes"/>
      <point x="386" y="284"/>
      <point x="340" y="273"/>
      <point x="323" y="194" type="curve" smooth="yes"/>
      <point x="308" y="120" type="line"/>
      <point x="288" y="120" type="line"/>
      <point x="302" y="188" type="line" smooth="yes"/>
      <point x="324" y="293"/>
      <point x="394" y="306"/>
      <point x="517" y="391" type="curve" smooth="yes"/>
      <point x="596" y="445"/>
      <point x="640" y="483"/>
      <point x="651" y="537" type="curve" smooth="yes"/>
      <point x="668" y="618"/>
      <point x="595" y="691"/>
      <point x="439" y="691" type="curve" smooth="yes"/>
      <point x="325" y="691"/>
      <point x="180" y="642"/>
      <point x="157" y="532" type="curve"/>
    </contour>
    <contour>
      <point x="280" y="30" type="curve" smooth="yes"/>
      <point x="288" y="30"/>
      <point x="295" y="23"/>
      <point x="293" y="13" type="curve" smooth="yes"/>
      <point x="291" y="4"/>
      <point x="281" y="-4"/>
      <point x="273" y="-4" type="curve" smooth="yes"/>
      <point x="263" y="-4"/>
      <point x="257" y="4"/>
      <point x="259" y="13" type="curve" smooth="yes"/>
      <point x="261" y="23"/>
      <point x="270" y="30"/>
    </contour>
  </outline>
</glyph>
<glyph name="A" format="2">
  <advance width="795"/>
  <unicode hex="0041"/>
  <outline>
    <contour>
      <point x="777" y="0" type="line"/>
      <point x="756" y="0" type="line"/>
      <point x="669" y="281" type="line"/>
      <point x="250" y="281" type="line"/>
      <point x="41" y="0" type="line"/>
      <point x="20" y="0" type="line"/>
      <point x="542" y="700" type="line"/>
      <point x="557" y="700" type="line"/>
    </contour>
    <contour>
      <point x="265" y="300" type="line"/>
      <point x="661" y="300" type="line"/>
      <point x="544" y="676" type="line"/>
    </contour>
  </outline>
</glyph>
<glyph name="B" format="2">
  <advance width="710" height="962"/>
  <unicode hex="0042"/>
  <outline>
    <contour>
      <point x="549" y="700" type="line" smooth="yes"/>
      <point x="710" y="700"/>
      <point x="763" y="649"/>
      <point x="740" y="540" type="curve" smooth="yes"/>
      <point x="726" y="475"/>
      <point x="668" y="418"/>
      <point x="571" y="402" type="curve"/>
      <point x="706" y="381"/>
      <point x="745" y="302"/>
      <point x="725" y="209" type="curve" smooth="yes"/>
      <point x="699" y="85"/>
      <point x="615" y="0"/>
      <point x="416" y="0" type="curve" smooth="yes"/>
      <point x="41" y="0" type="line"/>
      <point x="189" y="700" type="line"/>
    </contour>
    <contour>
      <point x="514" y="412" type="line" smooth="yes"/>
      <point x="617" y="412"/>
      <point x="706" y="465"/>
      <point x="722" y="541" type="curve" smooth="yes"/>
      <point x="739" y="619"/>
      <point x="716" y="681"/>
      <point x="544" y="681" type="curve" smooth="yes"/>
      <point x="203" y="681" type="line"/>
      <point x="146" y="412" type="line"/>
    </contour>
    <contour>
      <point x="421" y="19" type="line" smooth="yes"/>
      <point x="603" y="19"/>
      <point x="683" y="96"/>
      <point x="707" y="209" type="curve" smooth="yes"/>
      <point x="732" y="325"/>
      <point x="645" y="394"/>
      <point x="472" y="394" type="curve" smooth="yes"/>
      <point x="142" y="394" type="line"/>
      <point x="63" y="19" type="line"/>
    </contour>
  </outline>
</glyph>
<glyph name="C" format="2">
  <advance width="603" height="962"/>
  <unicode hex="0043"/>
  <outline>
    <contour>
      <point x="673" y="660" type="line"/>
      <point x="612" y="683"/>
      <point x="531" y="692"/>
      <point x="468" y="692" type="curve" smooth="yes"/>
      <point x="291" y="692"/>
      <point x="189" y="642"/>
      <point x="160" y="508" type="curve" smooth="yes"/>
      <point x="96" y="206" type="line" smooth="yes"/>
      <point x="63" y="50"/>
      <point x="153" y="8"/>
      <point x="332" y="8" type="curve" smooth="yes"/>
      <point x="392" y="8"/>
      <point x="493" y="18"/>
      <point x="582" y="41" type="curve"/>
      <point x="582" y="23" type="line"/>
      <point x="494" y="1"/>
      <point x="400" y="-10"/>
      <point x="322" y="-10" type="curve" smooth="yes"/>
      <point x="112" y="-10"/>
      <point x="45" y="51"/>
      <point x="78" y="204" type="curve" smooth="yes"/>
      <point x="144" y="514" type="line" smooth="yes"/>
      <point x="177" y="670"/>
      <point x="310" y="710"/>
      <point x="467" y="710" type="curve" smooth="yes"/>
      <point x="548" y="710"/>
      <point x="629" y="699"/>
      <point x="684" y="677" type="curve"/>
    </contour>
  </outline>
</glyph>
<glyph name="D" format="2">
  <advance width="706"/>
  <unicode hex="0044"/>
  <outline>
    <contour>
      <point x="515" y="700" type="line" smooth="yes"/>
      <point x="731" y="700"/>
      <point x="803" y="616"/>
      <point x="773" y="475" type="curve" smooth="yes"/>
      <point x="720" y="228" type="line" smooth="yes"/>
      <point x="691" y="90"/>
      <point x="597" y="0"/>
      <point x="384" y="0" type="curve" smooth="yes"/>
      <point x="41" y="0" type="line"/>
      <point x="190" y="700" type="line"/>
    </contour>
    <contour>
      <point x="384" y="20" type="line" smooth="yes"/>
      <point x="566" y="20"/>
      <point x="670" y="82"/>
      <point x="703" y="233" type="curve" smooth="yes"/>
      <point x="753" y="471" type="line" smooth="yes"/>
      <point x="782" y="605"/>
      <point x="712" y="680"/>
      <point x="516" y="680" type="curve" smooth="yes"/>
      <point x="205" y="680" type="line"/>
      <point x="64" y="20" type="line"/>
    </contour>
  </outline>
</glyph>
<glyph name="K" format="2">
  <advance width="658"/>
  <unicode hex="004B"/>
  <outline>
    <contour>
      <point x="125" y="307" type="line"/>
      <point x="674" y="700" type="line"/>
      <point x="702" y="700" type="line"/>
      <point x="317" y="425" type="line"/>
      <point x="636" y="0" type="line"/>
      <point x="611" y="0" type="line"/>
      <point x="301" y="413" type="line"/>
      <point x="120" y="284" type="line"/>
      <point x="60" y="0" type="line"/>
      <point x="41" y="0" type="line"/>
      <point x="189" y="700" type="line"/>
      <point x="209" y="700" type="line"/>
    </contour>
  </outline>
</glyph>
<glyph name="L" format="1">
  <advance width="600" height="962"/>
  <unicode hex="004C"/>
  <outline>
    <contour>
      <point x="41" y="0" type="line"/>
      <point x="189" y="700" type="line"/>
      <point x="209" y="700" type="line"/>
      <point x="64" y="20" type="line"/>
      <point x="586" y="20" type="line"/>
      <point x="582" y="0" type="line"/>
    </contour>
  </outline>
</glyph>
<glyph name="M" format="2">
  <advance width="880" height="962"/>
  <unicode hex="004D"/>
  <outline>
    <contour>
      <point x="207" y="700" type="line"/>
      <point x="438" y="21" type="line"/>
      <point x="968" y="700" type="line"/>
      <point x="986" y="700" type="line"/>
      <point x="837" y="0" type="line"/>
      <point x="819" y="0" type="line"/>
      <point x="960" y="663" type="line"/>
      <point x="443" y="0" type="line"/>
      <point x="425" y="0" type="line"/>
      <point x="199" y="663" type="line"/>
      <point x="59" y="0" type="line"/>
      <point x="41" y="0" type="line"/>
      <point x="189" y="700" type="line"/>
    </contour>
  </outline>
</glyph>
<glyph name="N" format="2">
  <advance width="823"/>
  <unicode hex="004E"/>
  <outline>
    <contour>
      <point x="929" y="700" type="line"/>
      <point x="780" y="0" type="line"/>
      <point x="762" y="0" type="line"/>
      <point x="202" y="675" type="line"/>
      <point x="59" y="0" type="line"/>
      <point x="41" y="0" type="line"/>
      <point x="189" y="700" type="line"/>
      <point x="207" y="700" type="line"/>
      <point x="768" y="27" type="line"/>
      <point x="911" y="700" type="line"/>
    </contour>
  </outline>
</glyph>
<glyph name="Q" format="1">
  <advance width="695" height="962"/>
  <unicode hex="0051"/>
  <outline>
    <component base="O"/>
    <contour>
      <point x="380" y="43" type="line" smooth="yes"/>
      <point x="360" y="-50"/>
      <point x="426" y="-76"/>
      <point x="570" y="-76" type="curve"/>
      <point x="564" y="-97" type="line"/>
      <point x="402" y="-97"/>
      <point x="336" y="-62"/>
      <point x="359" y="43" type="curve" smooth="yes"/>
      <point x="386" y="174" type="line"/>
      <point x="407" y="174" type="line"/>
    </contour>
  </outline>
</glyph>
<glyph name="R" format="2">
  <advance width="726"/>
  <unicode hex="0052"/>
  <outline>
    <contour>
      <point x="605" y="700" type="line" smooth="yes"/>
      <point x="779" y="700"/>
      <point x="828" y="633"/>
      <point x="798" y="494" type="curve" smooth="yes"/>
      <point x="769" y="356"/>
      <point x="706" y="292"/>
      <point x="549" y="283" type="curve"/>
      <point x="693" y="0" type="line"/>
      <point x="669" y="0" type="line"/>
      <point x="524" y="282" type="line"/>
      <point x="506" y="281"/>
      <point x="483" y="281"/>
      <point x="465" y="281" type="curve" smooth="yes"/>
      <point x="120" y="281" type="line"/>
      <point x="60" y="0" type="line"/>
      <point x="41" y="0" type="line"/>
      <point x="190" y="700" type="line"/>
    </contour>
    <contour>
      <point x="508" y="300" type="line" smooth="yes"/>
      <point x="691" y="300"/>
      <point x="750" y="358"/>
      <point x="779" y="494" type="curve" smooth="yes"/>
      <point x="806" y="621"/>
      <point x="760" y="680"/>
      <point x="602" y="680" type="curve" smooth="yes"/>
      <point x="205" y="680" type="line"/>
      <point x="124" y="300" type="line"/>
    </contour>
  </outline>
</glyph>
<glyph name="T" format="2">
  <advance width="614" height="962"/>
  <unicode hex="0054"/>
  <outline>
    <contour>
      <point x="458" y="680" type="line"/>
      <point x="314" y="0" type="line"/>
      <point x="296" y="0" type="line"/>
      <point x="440" y="680" type="line"/>
      <point x="149" y="680" type="line"/>
      <point x="153" y="700" type="line"/>
      <point x="758" y="700" type="line"/>
      <point x="754" y="680" type="line"/>
    </contour>
  </outline>
</glyph>
<glyph name="V" format="2">
  <advance width="747"/>
  <unicode hex="0056"/>
  <outline>
    <contour>
      <point x="162" y="700" type="line"/>
      <point x="183" y="700" type="line"/>
      <point x="377" y="21" type="line"/>
      <point x="858" y="700" type="line"/>
      <point x="880" y="700" type="line"/>
      <point x="382" y="0" type="line"/>
      <point x="362" y="0" type="line"/>
    </contour>
  </outline>
</glyph>
<glyph name="W" format="2">
  <advance width="1078"/>
  <unicode hex="0057"/>
  <outline>
    <contour>
      <point x="696" y="700" type="line"/>
      <point x="794" y="29" type="line"/>
      <point x="1185" y="700" type="line"/>
      <point x="1208" y="700" type="line"/>
      <point x="797" y="0" type="line"/>
      <point x="777" y="0" type="line"/>
      <point x="681" y="669" type="line"/>
      <point x="302" y="0" type="line"/>
      <point x="282" y="0" type="line"/>
      <point x="164" y="700" type="line"/>
      <point x="185" y="700" type="line"/>
      <point x="299" y="29" type="line"/>
      <point x="677" y="700" type="line"/>
    </contour>
  </outline>
  <guideline angle="90" x="130.036" y="0"/>
</glyph>
<glyph name="Z" format="2">
  <advance width="778" height="962"/>
  <unicode hex="005A"/>
  <outline>
    <contour>
      <point x="188" y="700" type="line"/>
      <point x="891" y="700" type="line"/>
      <point x="887" y="681" type="line"/>
      <point x="89.6758" y="44.2948" type="line"/>
      <point x="57" y="19" type="line"/>
      <point x="755.787" y="18" type="line"/>
      <point x="752" y="0" type="line"/>
      <point x="27" y="0" type="line"/>
      <point x="31" y="20" type="line"/>
      <point x="824.261" y="654.761" type="line"/>
      <point x="858" y="681" type="line"/>
      <point x="184.213" y="682" type="line"/>
    </contour>
  </outline>
</glyph>
<glyph name="backslash" format="2">
  <advance width="567"/>
  <unicode hex="005C"/>
  <outline>
    <contour>
      <point x="488" y="-114" type="line"/>
      <point x="198" y="818" type="line"/>
      <point x="230" y="818" type="line"/>
      <point x="518" y="-114" type="line"/>
    </contour>
  </outline>
</glyph>
<glyph name="a" format="2">
  <advance width="637"/>
  <unicode hex="0061"/>
  <outline>
    <contour>
      <point x="656" y="346" type="curve"/>
      <point x="684" y="480"/>
      <point x="538" y="491"/>
      <point x="394" y="491" type="curve"/>
      <point x="399" y="509" type="line"/>
      <point x="569" y="509"/>
      <point x="709" y="498"/>
      <point x="674" y="336" type="curve" smooth="yes"/>
      <point x="603" y="0" type="line"/>
      <point x="608" y="0"/>
      <point x="388" y="-10"/>
      <point x="331" y="-10" type="curve" smooth="yes"/>
      <point x="113" y="-10"/>
      <point x="32" y="30"/>
      <point x="61" y="169" type="curve" smooth="yes"/>
      <point x="79" y="252" type="line" smooth="yes"/>
      <point x="97" y="336"/>
      <point x="152" y="404"/>
      <point x="354" y="404" type="curve" smooth="yes"/>
      <point x="464" y="404"/>
      <point x="572" y="376"/>
    </contour>
    <contour>
      <point x="651" y="323" type="line"/>
      <point x="552" y="360"/>
      <point x="458" y="385"/>
      <point x="349" y="385" type="curve" smooth="yes"/>
      <point x="193" y="385"/>
      <point x="118" y="344"/>
      <point x="98" y="250" type="curve" smooth="yes"/>
      <point x="80" y="163" type="line" smooth="yes"/>
      <point x="60" y="70"/>
      <point x="99" y="8"/>
      <point x="335" y="8" type="curve" smooth="yes"/>
      <point x="401" y="8"/>
      <point x="590" y="18"/>
      <point x="586" y="18" type="curve"/>
    </contour>
  </outline>
</glyph>
<glyph name="b" format="1">
  <advance width="647" height="962"/>
  <unicode hex="0062"/>
  <outline>
    <contour>
      <point x="161" y="472" type="line"/>
      <point x="243" y="494"/>
      <point x="348" y="510"/>
      <point x="459" y="510" type="curve" smooth="yes"/>
      <point x="662" y="510"/>
      <point x="712" y="442"/>
      <point x="694" y="359" type="curve" smooth="yes"/>
      <point x="654" y="169" type="line" smooth="yes"/>
      <point x="624" y="30"/>
      <point x="531" y="-11"/>
      <point x="309" y="-11" type="curve" smooth="yes"/>
      <point x="253" y="-11"/>
      <point x="36" y="-1"/>
      <point x="41" y="-1" type="curve"/>
      <point x="190" y="700" type="line"/>
      <point x="210" y="700" type="line"/>
    </contour>
    <contour>
      <point x="65" y="17" type="line"/>
      <point x="84" y="16"/>
      <point x="245" y="8"/>
      <point x="312" y="7" type="curve" smooth="yes"/>
      <point x="549" y="5"/>
      <point x="612" y="70"/>
      <point x="631" y="162" type="curve" smooth="yes"/>
      <point x="672" y="355" type="line" smooth="yes"/>
      <point x="693" y="451"/>
      <point x="614" y="493"/>
      <point x="458" y="493" type="curve" smooth="yes"/>
      <point x="347" y="493"/>
      <point x="243" y="476"/>
      <point x="157" y="452" type="curve"/>
    </contour>
  </outline>
</glyph>
<glyph name="e" format="2">
  <advance width="606" height="962"/>
  <unicode hex="0065"/>
  <outline>
    <contour>
      <point x="78" y="133" type="line" smooth="yes"/>
      <point x="53" y="17"/>
      <point x="163" y="7"/>
      <point x="291" y="7" type="curve" smooth="yes"/>
      <point x="372" y="7"/>
      <point x="445" y="18"/>
      <point x="538" y="52" type="curve"/>
      <point x="540" y="35" type="line"/>
      <point x="460" y="3"/>
      <point x="374" y="-12"/>
      <point x="290" y="-12" type="curve" smooth="yes"/>
      <point x="144" y="-12"/>
      <point x="31" y="5"/>
      <point x="58" y="134" type="curve" smooth="yes"/>
      <point x="102" y="339" type="line" smooth="yes"/>
      <point x="130" y="471"/>
      <point x="257" y="510"/>
      <point x="416" y="510" type="curve" smooth="yes"/>
      <point x="573" y="510"/>
      <point x="672" y="474"/>
      <point x="644" y="342" type="curve" smooth="yes"/>
      <point x="624" y="247" type="line"/>
      <point x="98" y="230" type="line"/>
    </contour>
    <contour>
      <point x="623" y="343" type="line" smooth="yes"/>
      <point x="649" y="464"/>
      <point x="553" y="493"/>
      <point x="411" y="493" type="curve" smooth="yes"/>
      <point x="259" y="493"/>
      <point x="146" y="455"/>
      <point x="120" y="333" type="curve" smooth="yes"/>
      <point x="102" y="249" type="line"/>
      <point x="607" y="265" type="line"/>
    </contour>
  </outline>
</glyph>
<glyph name="f" format="1">
  <advance width="332" height="962"/>
  <unicode hex="0066"/>
  <outline>
    <contour>
      <point x="459" y="690" type="line"/>
      <point x="444" y="693"/>
      <point x="419" y="693"/>
      <point x="405" y="693" type="curve" smooth="yes"/>
      <point x="312" y="693"/>
      <point x="202" y="680"/>
      <point x="177" y="565" type="curve" smooth="yes"/>
      <point x="163" y="500" type="line"/>
      <point x="401" y="500" type="line"/>
      <point x="392" y="484" type="line"/>
      <point x="160" y="484" type="line"/>
      <point x="57" y="0" type="line"/>
      <point x="39" y="0" type="line"/>
      <point x="159" y="565" type="line" smooth="yes"/>
      <point x="185" y="688"/>
      <point x="295" y="710"/>
      <point x="400" y="710" type="curve" smooth="yes"/>
      <point x="418" y="710"/>
      <point x="451" y="710"/>
      <point x="466" y="707" type="curve"/>
    </contour>
  </outline>
</glyph>
<glyph name="h" format="1">
  <advance width="627" height="962"/>
  <unicode hex="0068"/>
  <outline>
    <contour>
      <point x="161" y="473" type="line"/>
      <point x="213" y="487"/>
      <point x="319" y="507"/>
      <point x="398" y="510" type="curve" smooth="yes"/>
      <point x="529" y="515"/>
      <point x="705" y="513"/>
      <point x="671" y="356" type="curve" smooth="yes"/>
      <point x="596" y="0" type="line"/>
      <point x="578" y="0" type="line"/>
      <point x="653" y="357" type="line" smooth="yes"/>
      <point x="678" y="471"/>
      <point x="577" y="501"/>
      <point x="414" y="495" type="curve" smooth="yes"/>
      <point x="327" y="492"/>
      <point x="216" y="474"/>
      <point x="157" y="456" type="curve"/>
      <point x="60" y="0" type="line"/>
      <point x="41" y="0" type="line"/>
      <point x="189" y="700" type="line"/>
      <point x="209" y="700" type="line"/>
    </contour>
  </outline>
</glyph>
<glyph name="j" format="2">
  <advance width="227"/>
  <unicode hex="006A"/>
  <outline>
    <contour>
      <point x="169" y="-68" type="line" smooth="yes"/>
      <point x="151" y="-152"/>
      <point x="101" y="-189"/>
      <point x="-20" y="-214" type="curve"/>
      <point x="-21" y="-197" type="line"/>
      <point x="85" y="-171"/>
      <point x="133" y="-144"/>
      <point x="149" y="-67" type="curve" smooth="yes"/>
      <point x="266" y="483" type="line"/>
      <point x="131" y="483" type="line"/>
      <point x="135" y="501" type="line"/>
      <point x="289" y="501" type="line"/>
    </contour>
    <contour>
      <point x="326" y="693" type="curve" smooth="yes"/>
      <point x="324" y="684"/>
      <point x="316" y="676"/>
      <point x="307" y="676" type="curve" smooth="yes"/>
      <point x="297" y="676"/>
      <point x="291" y="684"/>
      <point x="293" y="693" type="curve" smooth="yes"/>
      <point x="295" y="704"/>
      <point x="304" y="709"/>
      <point x="314" y="709" type="curve" smooth="yes"/>
      <point x="323" y="709"/>
      <point x="328" y="704"/>
    </contour>
  </outline>
</glyph>
<glyph name="k" format="1">
  <advance width="599" height="962"/>
  <unicode hex="006B"/>
  <outline>
    <contour>
      <point x="311" y="381" type="line"/>
      <point x="581" y="0" type="line"/>
      <point x="556" y="0" type="line"/>
      <point x="293" y="372" type="line"/>
      <point x="120" y="279" type="line"/>
      <point x="61" y="0" type="line"/>
      <point x="41" y="0" type="line"/>
      <point x="190" y="700" type="line"/>
      <point x="210" y="700" type="line"/>
      <point x="125" y="301" type="line"/>
      <point x="538" y="520" type="line"/>
      <point x="551" y="510" type="line"/>
    </contour>
  </outline>
</glyph>
<glyph name="m" format="1">
  <advance width="1042" height="962"/>
  <unicode hex="006D"/>
  <outline>
    <contour>
      <point x="1060" y="355" type="line" smooth="yes"/>
      <point x="1086" y="474"/>
      <point x="1007" y="503"/>
      <point x="843" y="494" type="curve" smooth="yes"/>
      <point x="757" y="489"/>
      <point x="669" y="468"/>
      <point x="605" y="445" type="curve"/>
      <point x="616" y="421"/>
      <point x="619" y="397"/>
      <point x="610" y="354" type="curve" smooth="yes"/>
      <point x="535" y="0" type="line"/>
      <point x="516" y="0" type="line"/>
      <point x="591" y="355" type="line" smooth="yes"/>
      <point x="616" y="469"/>
      <point x="538" y="503"/>
      <point x="375" y="494" type="curve" smooth="yes"/>
      <point x="284" y="489"/>
      <point x="214" y="471"/>
      <point x="153" y="453" type="curve"/>
      <point x="57" y="0" type="line"/>
      <point x="39" y="0" type="line"/>
      <point x="145" y="500" type="line"/>
      <point x="163" y="500" type="line"/>
      <point x="157" y="472" type="line"/>
      <point x="207" y="488"/>
      <point x="293" y="505"/>
      <point x="371" y="509" type="curve" smooth="yes"/>
      <point x="457" y="514"/>
      <point x="555" y="512"/>
      <point x="595" y="459" type="curve"/>
      <point x="660" y="486"/>
      <point x="766" y="505"/>
      <point x="840" y="509" type="curve" smooth="yes"/>
      <point x="970" y="516"/>
      <point x="1113" y="515"/>
      <point x="1079" y="354" type="curve" smooth="yes"/>
      <point x="1004" y="0" type="line"/>
      <point x="985" y="0" type="line"/>
    </contour>
  </outline>
</glyph>
<glyph name="n" format="2">
  <advance width="629" height="962"/>
  <unicode hex="006E"/>
  <outline>
    <contour>
      <point x="647" y="344" type="line" smooth="yes"/>
      <point x="672" y="459"/>
      <point x="573" y="501"/>
      <point x="410" y="495" type="curve" smooth="yes"/>
      <point x="323" y="492"/>
      <point x="215" y="473"/>
      <point x="154" y="455" type="curve"/>
      <point x="57" y="0" type="line"/>
      <point x="38" y="0" type="line"/>
      <point x="144" y="501" type="line"/>
      <point x="163" y="501" type="line"/>
      <point x="158" y="473" type="line"/>
      <point x="228" y="493"/>
      <point x="325" y="507"/>
      <point x="395" y="510" type="curve" smooth="yes"/>
      <point x="527" y="515"/>
      <point x="699" y="503"/>
      <point x="665" y="345" type="curve" smooth="yes"/>
      <point x="592" y="0" type="line"/>
      <point x="574" y="0" type="line"/>
    </contour>
  </outline>
</glyph>
<glyph name="o" format="2">
  <advance width="613" height="962"/>
  <unicode hex="006F"/>
  <outline>
    <contour>
      <point x="623" y="185" type="line" smooth="yes"/>
      <point x="594" y="48"/>
      <point x="490" y="-10"/>
      <point x="308" y="-10" type="curve" smooth="yes"/>
      <point x="115" y="-10"/>
      <point x="41" y="57"/>
      <point x="68" y="185" type="curve" smooth="yes"/>
      <point x="96" y="316" type="line" smooth="yes"/>
      <point x="127" y="463"/>
      <point x="241" y="512"/>
      <point x="419" y="512" type="curve" smooth="yes"/>
      <point x="598" y="512"/>
      <point x="681" y="458"/>
      <point x="651" y="316" type="curve" smooth="yes"/>
    </contour>
    <contour>
      <point x="632" y="320" type="line" smooth="yes"/>
      <point x="661" y="455"/>
      <point x="569" y="494"/>
      <point x="416" y="494" type="curve" smooth="yes"/>
      <point x="249" y="494"/>
      <point x="143" y="449"/>
      <point x="116" y="320" type="curve" smooth="yes"/>
      <point x="87" y="185" type="line" smooth="yes"/>
      <point x="62" y="66"/>
      <point x="135" y="8"/>
      <point x="312" y="8" type="curve" smooth="yes"/>
      <point x="483" y="8"/>
      <point x="578" y="64"/>
      <point x="603" y="185" type="curve" smooth="yes"/>
    </contour>
  </outline>
</glyph>
<glyph name="r" format="2">
  <advance width="466" height="962"/>
  <unicode hex="0072"/>
  <outline>
    <contour>
      <point x="550" y="492" type="line"/>
      <point x="529" y="494"/>
      <point x="503" y="496"/>
      <point x="481" y="496" type="curve" smooth="yes"/>
      <point x="406" y="496"/>
      <point x="308" y="478"/>
      <point x="150" y="433" type="curve"/>
      <point x="58" y="0" type="line"/>
      <point x="38" y="0" type="line"/>
      <point x="144" y="501" type="line"/>
      <point x="164" y="501" type="line"/>
      <point x="155" y="455" type="line"/>
      <point x="286" y="489"/>
      <point x="401" y="515"/>
      <point x="488" y="515" type="curve" smooth="yes"/>
      <point x="512" y="515"/>
      <point x="536" y="512"/>
      <point x="554" y="508" type="curve"/>
    </contour>
  </outline>
</glyph>
<glyph name="s" format="2">
  <advance width="584"/>
  <unicode hex="0073"/>
  <anchor x="316" y="587" name="top"/>
  <outline>
    <contour>
      <point x="581" y="461" type="line"/>
      <point x="543" y="478"/>
      <point x="473" y="494"/>
      <point x="405" y="494" type="curve" smooth="yes"/>
      <point x="309" y="494"/>
      <point x="182.085" y="473.982"/>
      <point x="165" y="393" type="curve" smooth="yes"/>
      <point x="132.085" y="236.982"/>
      <point x="618.826" y="298.037"/>
      <point x="580" y="116" type="curve" smooth="yes"/>
      <point x="557.826" y="12.0369"/>
      <point x="412" y="-15"/>
      <point x="289" y="-15" type="curve" smooth="yes"/>
      <point x="178" y="-15"/>
      <point x="96" y="9"/>
      <point x="40" y="68" type="curve"/>
      <point x="56" y="81" type="line"/>
      <point x="107" y="25"/>
      <point x="189" y="2"/>
      <point x="291" y="2" type="curve" smooth="yes"/>
      <point x="405" y="2"/>
      <point x="542.795" y="31.0437"/>
      <point x="561" y="116" type="curve" smooth="yes"/>
      <point x="597" y="284"/>
      <point x="108.993" y="221.002"/>
      <point x="146" y="395" type="curve" smooth="yes"/>
      <point x="165.993" y="489.002"/>
      <point x="299" y="512"/>
      <point x="410" y="512" type="curve" smooth="yes"/>
      <point x="521" y="512"/>
      <point x="590" y="477"/>
      <point x="592" y="476" type="curve"/>
    </contour>
  </outline>
  <guideline angle="90" x="209.134" y="0"/>
  <guideline angle="0" x="0" y="492"/>
</glyph>
<glyph name="t" format="1">
  <advance width="327" height="962"/>
  <unicode hex="0074"/>
  <outline>
    <contour>
      <point x="85" y="122" type="line" smooth="yes"/>
      <point x="68" y="43"/>
      <point x="112" y="17"/>
      <point x="208" y="4" type="curve"/>
      <point x="200" y="-13" type="line"/>
      <point x="93" y="-1"/>
      <point x="46" y="34"/>
      <point x="65" y="122" type="curve" smooth="yes"/>
      <point x="188" y="700" type="line"/>
      <point x="207" y="700" type="line"/>
      <point x="165" y="500" type="line"/>
      <point x="410" y="500" type="line"/>
      <point x="397" y="482" type="line"/>
      <point x="161" y="482" type="line"/>
    </contour>
  </outline>
</glyph>
<glyph name="u" format="1">
  <advance width="630" height="962"/>
  <unicode hex="0075"/>
  <outline>
    <contour>
      <point x="592" y="103" type="line"/>
      <point x="539" y="33"/>
      <point x="431" y="-5"/>
      <point x="325" y="-9" type="curve" smooth="yes"/>
      <point x="204" y="-14"/>
      <point x="34" y="-1"/>
      <point x="69" y="167" type="curve" smooth="yes"/>
      <point x="140" y="501" type="line"/>
      <point x="160" y="501" type="line"/>
      <point x="89" y="166" type="line" smooth="yes"/>
      <point x="63" y="43"/>
      <point x="165" y="2"/>
      <point x="329" y="9" type="curve" smooth="yes"/>
      <point x="475" y="16"/>
      <point x="589" y="88"/>
      <point x="606" y="169" type="curve" smooth="yes"/>
      <point x="676" y="501" type="line"/>
      <point x="697" y="501" type="line"/>
      <point x="591" y="0" type="line"/>
      <point x="570" y="0" type="line"/>
    </contour>
  </outline>
</glyph>
<glyph name="x" format="2">
  <advance width="528"/>
  <unicode hex="0078"/>
  <outline>
    <contour>
      <point x="324" y="268" type="line"/>
      <point x="581" y="500" type="line"/>
      <point x="606" y="500" type="line"/>
      <point x="334" y="254" type="line"/>
      <point x="509" y="0" type="line"/>
      <point x="487" y="0" type="line"/>
      <point x="321" y="242" type="line"/>
      <point x="51" y="0" type="line"/>
      <point x="26" y="0" type="line"/>
      <point x="310" y="257" type="line"/>
      <point x="141" y="500" type="line"/>
      <point x="163" y="500" type="line"/>
    </contour>
  </outline>
</glyph>
<glyph name="y" format="2">
  <advance width="645"/>
  <unicode hex="0079"/>
  <outline>
    <contour>
      <point x="735" y="501" type="line"/>
      <point x="701" y="483"/>
      <point x="688" y="463"/>
      <point x="679" y="418" type="curve" smooth="yes"/>
      <point x="576" y="-67" type="line" smooth="yes"/>
      <point x="558" y="-152"/>
      <point x="507" y="-187"/>
      <point x="388" y="-213" type="curve"/>
      <point x="385" y="-196" type="line"/>
      <point x="490" y="-170"/>
      <point x="538" y="-143"/>
      <point x="554" y="-66" type="curve" smooth="yes"/>
      <point x="590" y="104" type="line"/>
      <point x="536" y="34"/>
      <point x="430" y="-4"/>
      <point x="327" y="-8" type="curve" smooth="yes"/>
      <point x="185" y="-13"/>
      <point x="34" y="-6"/>
      <point x="66" y="148" type="curve" smooth="yes"/>
      <point x="141" y="501" type="line"/>
      <point x="161" y="501" type="line"/>
      <point x="86" y="147" type="line" smooth="yes"/>
      <point x="61" y="26"/>
      <point x="168" y="3"/>
      <point x="330" y="10" type="curve" smooth="yes"/>
      <point x="476" y="17"/>
      <point x="587" y="89"/>
      <point x="604" y="170" type="curve" smooth="yes"/>
      <point x="657" y="419" type="line" smooth="yes"/>
      <point x="667" y="467"/>
      <point x="681" y="487"/>
      <point x="722" y="512" type="curve"/>
    </contour>
  </outline>
</glyph>
<glyph name="z" format="1">
  <advance width="592" height="962"/>
  <unicode hex="007A"/>
  <outline>
    <contour>
      <point x="652" y="501" type="line"/>
      <point x="649" y="483" type="line"/>
      <point x="61" y="19" type="line"/>
      <point x="570" y="19" type="line"/>
      <point x="566" y="0" type="line"/>
      <point x="30" y="0" type="line"/>
      <point x="34" y="19" type="line"/>
      <point x="622" y="483" type="line"/>
      <point x="142" y="483" type="line"/>
      <point x="145" y="501" type="line"/>
    </contour>
  </outline>
</glyph>
<glyph name="braceleft" format="2">
  <advance width="354" height="962"/>
  <unicode hex="007B"/>
  <outline>
    <contour>
      <point x="298" y="517" type="line" smooth="yes"/>
      <point x="292" y="489"/>
      <point x="280" y="461"/>
      <point x="263" y="433" type="curve" smooth="yes"/>
      <point x="247" y="406"/>
      <point x="213" y="379"/>
      <point x="159" y="353" type="curve"/>
      <point x="202" y="327"/>
      <point x="225" y="301"/>
      <point x="229" y="273" type="curve" smooth="yes"/>
      <point x="234" y="245"/>
      <point x="234" y="218"/>
      <point x="228" y="190" type="curve" smooth="yes"/>
      <point x="204" y="76" type="line" smooth="yes"/>
      <point x="173" y="-69"/>
      <point x="305" y="-99"/>
      <point x="311" y="-99" type="curve"/>
      <point x="301" y="-118" type="line"/>
      <point x="296" y="-118"/>
      <point x="143" y="-85"/>
      <point x="177" y="76" type="curve" smooth="yes"/>
      <point x="201" y="190" type="line" smooth="yes"/>
      <point x="207" y="218"/>
      <point x="207" y="244"/>
      <point x="201" y="270" type="curve" smooth="yes"/>
      <point x="195" y="296"/>
      <point x="172" y="321"/>
      <point x="129" y="345" type="curve" smooth="yes"/>
      <point x="114" y="353" type="line"/>
      <point x="133" y="361" type="line" smooth="yes"/>
      <point x="186" y="385"/>
      <point x="219" y="410"/>
      <point x="237" y="436" type="curve" smooth="yes"/>
      <point x="253" y="462"/>
      <point x="265" y="489"/>
      <point x="271" y="517" type="curve" smooth="yes"/>
      <point x="295" y="630" type="line" smooth="yes"/>
      <point x="329" y="792"/>
      <point x="495" y="820"/>
      <point x="501" y="823" type="curve"/>
      <point x="501" y="803" type="line"/>
      <point x="497" y="803"/>
      <point x="353" y="774"/>
      <point x="322" y="630" type="curve" smooth="yes"/>
    </contour>
  </outline>
</glyph>
<glyph name="bar" format="1">
  <advance width="156" height="962"/>
  <unicode hex="007C"/>
  <outline>
    <contour>
      <point x="39" y="-114" type="line"/>
      <point x="237" y="818" type="line"/>
      <point x="264" y="818" type="line"/>
      <point x="66" y="-114" type="line"/>
    </contour>
  </outline>
</glyph>
<glyph name="section" format="2">
  <advance width="606"/>
  <unicode hex="00A7"/>
  <outline>
    <contour>
      <point x="621.75" y="648" type="line"/>
      <point x="583.75" y="665"/>
      <point x="513.75" y="681"/>
      <point x="445.75" y="681" type="curve" smooth="yes"/>
      <point x="349.75" y="681"/>
      <point x="222.85" y="661"/>
      <point x="205.75" y="580" type="curve" smooth="yes"/>
      <point x="172.85" y="424"/>
      <point x="659.55" y="485.05"/>
      <point x="620.75" y="303" type="curve" smooth="yes"/>
      <point x="611.321" y="258.802"/>
      <point x="579.534" y="228.495"/>
      <point x="536.643" y="208.279" type="curve"/>
      <point x="570.258" y="186.539"/>
      <point x="588.889" y="157.651"/>
      <point x="580" y="116" type="curve" smooth="yes"/>
      <point x="557.85" y="12.05"/>
      <point x="412" y="-15"/>
      <point x="289" y="-15" type="curve" smooth="yes"/>
      <point x="178" y="-15"/>
      <point x="96" y="9"/>
      <point x="40" y="68" type="curve"/>
      <point x="56" y="81" type="line"/>
      <point x="107" y="25"/>
      <point x="189" y="2"/>
      <point x="291" y="2" type="curve" smooth="yes"/>
      <point x="405" y="2"/>
      <point x="542.8" y="31.05"/>
      <point x="561" y="116" type="curve" smooth="yes"/>
      <point x="597" y="284"/>
      <point x="109" y="221"/>
      <point x="146" y="395" type="curve" smooth="yes"/>
      <point x="155.641" y="440.286"/>
      <point x="193.83" y="471.005"/>
      <point x="240.846" y="488.751" type="curve"/>
      <point x="200.977" y="509.929"/>
      <point x="177.515" y="538.569"/>
      <point x="186.75" y="582" type="curve" smooth="yes"/>
      <point x="206.75" y="676"/>
      <point x="339.75" y="699"/>
      <point x="450.75" y="699" type="curve" smooth="yes"/>
      <point x="561.75" y="699"/>
      <point x="630.75" y="664"/>
      <point x="632.75" y="663" type="curve"/>
    </contour>
    <contour>
      <point x="516.826" y="219.553" type="curve"/>
      <point x="560.787" y="237.602"/>
      <point x="593.516" y="264.545"/>
      <point x="601.75" y="303" type="curve" smooth="yes"/>
      <point x="627.05" y="421.068"/>
      <point x="393.541" y="425.043"/>
      <point x="265.346" y="477.375" type="curve"/>
      <point x="232.256" y="467.997"/>
      <point x="175.083" y="440.755"/>
      <point x="165" y="393" type="curve" smooth="yes"/>
      <point x="141.037" y="279.497"/>
      <point x="393.531" y="281.061"/>
    </contour>
  </outline>
  <guideline angle="90" x="249.882" y="0"/>
  <guideline angle="0" x="0" y="679"/>
  <guideline angle="90" x="209.134" y="0"/>
  <guideline angle="0" x="0" y="492"/>
</glyph>
<glyph name="copyright" format="2">
  <advance width="1012" height="962"/>
  <unicode hex="00A9"/>
  <outline>
    <contour>
      <point x="1019" y="182" type="line" smooth="yes"/>
      <point x="980" y="1"/>
      <point x="768" y="-68"/>
      <point x="490" y="-68" type="curve" smooth="yes"/>
      <point x="216" y="-68"/>
      <point x="30" y="1"/>
      <point x="69" y="182" type="curve" smooth="yes"/>
      <point x="100" y="330" type="line" smooth="yes"/>
      <point x="139" y="512"/>
      <point x="353" y="581"/>
      <point x="627" y="581" type="curve" smooth="yes"/>
      <point x="905" y="581"/>
      <point x="1089" y="512"/>
      <point x="1050" y="330" type="curve" smooth="yes"/>
    </contour>
    <contour>
      <point x="1032" y="327" type="line" smooth="yes"/>
      <point x="1068" y="500"/>
      <point x="885" y="563"/>
      <point x="624" y="563" type="curve" smooth="yes"/>
      <point x="363" y="563"/>
      <point x="154" y="500"/>
      <point x="118" y="327" type="curve" smooth="yes"/>
      <point x="87" y="185" type="line" smooth="yes"/>
      <point x="51" y="13"/>
      <point x="232" y="-52"/>
      <point x="493" y="-52" type="curve" smooth="yes"/>
      <point x="754" y="-52"/>
      <point x="965" y="13"/>
      <point x="1001" y="185" type="curve" smooth="yes"/>
    </contour>
    <contour>
      <point x="816" y="405" type="line"/>
      <point x="751" y="427"/>
      <point x="683" y="437"/>
      <point x="623" y="437" type="curve" smooth="yes"/>
      <point x="532.19" y="437"/>
      <point x="457.995" y="423.654"/>
      <point x="403.827" y="391.844" type="curve" smooth="yes"/>
      <point x="354.204" y="362.702"/>
      <point x="321.387" y="318.066"/>
      <point x="308" y="254" type="curve" smooth="yes"/>
      <point x="290.79" y="172.389"/>
      <point x="317.654" y="126.224"/>
      <point x="373.879" y="101.301" type="curve" smooth="yes"/>
      <point x="418.928" y="81.3318"/>
      <point x="482.824" y="75"/>
      <point x="558" y="75" type="curve" smooth="yes"/>
      <point x="615" y="75"/>
      <point x="702" y="85"/>
      <point x="794" y="109" type="curve"/>
      <point x="795" y="91" type="line"/>
      <point x="707" y="69"/>
      <point x="621" y="58"/>
      <point x="543" y="58" type="curve" smooth="yes"/>
      <point x="460.24" y="58"/>
      <point x="395.121" y="67.2035"/>
      <point x="350.664" y="89.8925" type="curve" smooth="yes"/>
      <point x="293.594" y="119.019"/>
      <point x="270.574" y="170.369"/>
      <point x="288" y="253" type="curve" smooth="yes"/>
      <point x="302.719" y="322.797"/>
      <point x="337.729" y="371.854"/>
      <point x="389.817" y="404.13" type="curve" smooth="yes"/>
      <point x="447.432" y="439.83"/>
      <point x="525.941" y="455"/>
      <point x="621" y="455" type="curve" smooth="yes"/>
      <point x="703" y="455"/>
      <point x="769" y="444"/>
      <point x="827" y="421" type="curve"/>
    </contour>
  </outline>
</glyph>
<glyph name="ordfeminine" format="2">
  <advance width="489" height="962"/>
  <unicode hex="00AA"/>
  <outline>
    <contour>
      <point x="520" y="390" type="curve"/>
      <point x="448" y="385"/>
      <point x="399" y="382"/>
      <point x="368" y="379" type="curve"/>
      <point x="142" y="377"/>
      <point x="130" y="455"/>
      <point x="143" y="517" type="curve" smooth="yes"/>
      <point x="153" y="566"/>
      <point x="206" y="630"/>
      <point x="316" y="630" type="curve" smooth="yes"/>
      <point x="383" y="630"/>
      <point x="456" y="610"/>
      <point x="531" y="570" type="curve"/>
      <point x="540" y="611"/>
      <point x="531" y="642"/>
      <point x="505" y="660" type="curve" smooth="yes"/>
      <point x="474" y="683"/>
      <point x="417" y="692"/>
      <point x="333" y="693" type="curve"/>
      <point x="342" y="709" type="line"/>
      <point x="435" y="709"/>
      <point x="499" y="697"/>
      <point x="529" y="671" type="curve" smooth="yes"/>
      <point x="558" y="647"/>
      <point x="566" y="608"/>
      <point x="555" y="555" type="curve"/>
      <point x="555" y="556"/>
      <point x="520" y="391"/>
    </contour>
    <contour>
      <point x="525" y="549" type="line"/>
      <point x="447" y="591"/>
      <point x="377" y="614"/>
      <point x="314" y="614" type="curve" smooth="yes"/>
      <point x="217" y="614"/>
      <point x="179" y="550"/>
      <point x="171" y="514" type="curve" smooth="yes"/>
      <point x="162" y="470"/>
      <point x="168" y="438"/>
      <point x="219" y="415" type="curve" smooth="yes"/>
      <point x="275" y="391"/>
      <point x="393" y="397"/>
      <point x="494" y="405" type="curve"/>
    </contour>
  </outline>
</glyph>
<glyph name="paragraph" format="2">
  <advance width="871"/>
  <unicode hex="00B6"/>
  <outline>
    <contour>
      <point x="365" y="283" type="line" smooth="yes"/>
      <point x="173" y="283"/>
      <point x="101" y="339"/>
      <point x="134" y="495" type="curve" smooth="yes"/>
      <point x="166" y="645"/>
      <point x="263" y="702"/>
      <point x="444" y="702" type="curve" smooth="yes"/>
      <point x="977" y="702" type="line"/>
      <point x="828" y="1" type="line"/>
      <point x="809" y="1" type="line"/>
      <point x="954" y="682" type="line"/>
      <point x="825" y="682" type="line"/>
      <point x="680" y="1" type="line"/>
      <point x="660" y="1" type="line"/>
      <point x="720" y="283" type="line"/>
    </contour>
    <contour>
      <point x="438" y="682" type="line" smooth="yes"/>
      <point x="269" y="682"/>
      <point x="183" y="634"/>
      <point x="153" y="495" type="curve" smooth="yes"/>
      <point x="123" y="351"/>
      <point x="191" y="301"/>
      <point x="372" y="301" type="curve" smooth="yes"/>
      <point x="724" y="301" type="line"/>
      <point x="805" y="682" type="line"/>
    </contour>
  </outline>
</glyph>
<glyph name="ordmasculine" format="2">
	<advance width="493"/>
	<unicode hex="00BA"/>
	<outline>
		<contour>
			<point x="551" y="502" type="line" smooth="yes"/>
			<point x="533" y="416"/>
			<point x="457" y="379"/>
			<point x="324" y="379" type="curve" smooth="yes"/>
			<point x="182" y="379"/>
			<point x="126" y="421"/>
			<point x="143" y="502" type="curve" smooth="yes"/>
			<point x="161" y="585" type="line" smooth="yes"/>
			<point x="180" y="678"/>
			<point x="263" y="709"/>
			<point x="394" y="709" type="curve" smooth="yes"/>
			<point x="525" y="709"/>
			<point x="588" y="675"/>
			<point x="569" y="585" type="curve" smooth="yes"/>
		</contour>
		<contour>
			<point x="550" y="586" type="line" smooth="yes"/>
			<point x="567" y="666"/>
			<point x="498" y="691"/>
			<point x="390" y="691" type="curve" smooth="yes"/>
			<point x="271" y="691"/>
			<point x="196" y="663"/>
			<point x="180" y="586" type="curve" smooth="yes"/>
			<point x="162" y="504" type="line" smooth="yes"/>
			<point x="147" y="433"/>
			<point x="202" y="397"/>
			<point x="328" y="397" type="curve" smooth="yes"/>
			<point x="449" y="397"/>
			<point x="517" y="432"/>
			<point x="532" y="504" type="curve" smooth="yes"/>
		</contour>
	</outline>
</glyph>
<glyph name="guillemotright" format="2">
  <advance width="725" height="962"/>
  <unicode hex="00BB"/>
  <outline>
    <contour>
      <point x="365" y="267" type="line"/>
      <point x="141" y="441" type="line"/>
      <point x="166" y="455" type="line"/>
      <point x="408" y="267" type="line"/>
      <point x="86" y="79" type="line"/>
      <point x="69" y="97" type="line"/>
    </contour>
    <contour>
      <point x="693" y="267" type="line"/>
      <point x="471" y="441" type="line"/>
      <point x="498" y="455" type="line"/>
      <point x="738" y="267" type="line"/>
      <point x="418" y="79" type="line"/>
      <point x="399" y="97" type="line"/>
    </contour>
  </outline>
</glyph>
<glyph name="questiondown" format="2">
  <advance width="586" height="962"/>
  <unicode hex="00BF"/>
  <outline>
    <contour>
      <point x="607" y="163" type="line"/>
      <point x="580" y="44"/>
      <point x="434" y="-15"/>
      <point x="302" y="-14" type="curve" smooth="yes"/>
      <point x="169" y="-12"/>
      <point x="51" y="47"/>
      <point x="74" y="157" type="curve" smooth="yes"/>
      <point x="90" y="230"/>
      <point x="145" y="268"/>
      <point x="221" y="319" type="curve" smooth="yes"/>
      <point x="358" y="411"/>
      <point x="405" y="422"/>
      <point x="421" y="501" type="curve" smooth="yes"/>
      <point x="437" y="575" type="line"/>
      <point x="457" y="575" type="line"/>
      <point x="443" y="507" type="line" smooth="yes"/>
      <point x="420" y="402"/>
      <point x="351" y="389"/>
      <point x="228" y="304" type="curve" smooth="yes"/>
      <point x="149" y="250"/>
      <point x="105" y="212"/>
      <point x="94" y="158" type="curve" smooth="yes"/>
      <point x="76" y="77"/>
      <point x="162" y="4"/>
      <point x="306" y="4" type="curve" smooth="yes"/>
      <point x="420" y="4"/>
      <point x="564" y="53"/>
      <point x="588" y="163" type="curve"/>
    </contour>
    <contour>
      <point x="472" y="699" type="curve" smooth="yes"/>
      <point x="482" y="699"/>
      <point x="488" y="691"/>
      <point x="486" y="682" type="curve" smooth="yes"/>
      <point x="484" y="672"/>
      <point x="474" y="665"/>
      <point x="464" y="665" type="curve" smooth="yes"/>
      <point x="456" y="665"/>
      <point x="450" y="672"/>
      <point x="452" y="682" type="curve" smooth="yes"/>
      <point x="454" y="691"/>
      <point x="464" y="699"/>
    </contour>
  </outline>
</glyph>
<glyph name="AE" format="2">
  <advance width="1091" height="962"/>
  <unicode hex="00C6"/>
  <outline>
    <contour>
      <point x="575" y="0" type="line"/>
      <point x="647.429" y="343" type="line"/>
      <point x="310.737" y="343" type="line"/>
      <point x="38" y="0" type="line"/>
      <point x="18" y="0" type="line"/>
      <point x="572" y="700" type="line"/>
      <point x="1212" y="700" type="line"/>
      <point x="1208" y="680" type="line"/>
      <point x="739" y="680" type="line"/>
      <point x="671.471" y="363.475" type="line"/>
      <point x="1014.47" y="363.475" type="line"/>
      <point x="1003.47" y="343.475" type="line"/>
      <point x="667.471" y="343.475" type="line"/>
      <point x="598" y="20" type="line"/>
      <point x="1068" y="20" type="line"/>
      <point x="1064" y="0" type="line"/>
    </contour>
    <contour>
      <point x="324.737" y="363" type="line"/>
      <point x="651.429" y="363" type="line"/>
      <point x="719" y="680" type="line"/>
      <point x="575" y="680" type="line"/>
    </contour>
  </outline>
  <guideline angle="0" x="0" y="300"/>
</glyph>
<glyph name="multiply" format="2">
  <advance width="323" height="962"/>
  <unicode hex="00D7"/>
  <outline>
    <contour>
      <point x="235" y="344" type="line"/>
      <point x="380" y="485" type="line"/>
      <point x="391" y="472" type="line"/>
      <point x="245" y="331" type="line"/>
      <point x="330" y="194" type="line"/>
      <point x="310" y="180" type="line"/>
      <point x="228" y="316" type="line"/>
      <point x="85" y="180" type="line"/>
      <point x="74" y="191" type="line"/>
      <point x="219" y="330" type="line"/>
      <point x="132" y="474" type="line"/>
      <point x="147" y="486" type="line"/>
    </contour>
  </outline>
</glyph>
<glyph name="germandbls" format="2">
  <advance width="662"/>
  <unicode hex="00DF"/>
  <outline>
    <contour>
      <point x="60" y="0" type="line"/>
      <point x="40" y="0" type="line"/>
      <point x="157" y="551" type="line" smooth="yes"/>
      <point x="186" y="685"/>
      <point x="289" y="700"/>
      <point x="379" y="700" type="curve" smooth="yes"/>
      <point x="489" y="700"/>
      <point x="545" y="639"/>
      <point x="533" y="585" type="curve" smooth="yes"/>
      <point x="524" y="542"/>
      <point x="482" y="500"/>
      <point x="409" y="494" type="curve"/>
      <point x="401" y="494"/>
      <point x="397" y="494"/>
      <point x="392" y="494" type="curve"/>
      <point x="373" y="476"/>
      <point x="369" y="459"/>
      <point x="365" y="444" type="curve" smooth="yes"/>
      <point x="341" y="329"/>
      <point x="704" y="311"/>
      <point x="667" y="136" type="curve" smooth="yes"/>
      <point x="651" y="59"/>
      <point x="554" y="-11"/>
      <point x="404" y="-11" type="curve" smooth="yes"/>
      <point x="263" y="-11"/>
      <point x="200" y="31"/>
      <point x="190" y="36" type="curve"/>
      <point x="203" y="50" type="line"/>
      <point x="211" y="46"/>
      <point x="282" y="8"/>
      <point x="397" y="8" type="curve" smooth="yes"/>
      <point x="573" y="8"/>
      <point x="636" y="86"/>
      <point x="647" y="137" type="curve" smooth="yes"/>
      <point x="680" y="294"/>
      <point x="316" y="310"/>
      <point x="345" y="447" type="curve" smooth="yes"/>
      <point x="349" y="465"/>
      <point x="359" y="485"/>
      <point x="380" y="507" type="curve"/>
      <point x="461" y="507"/>
      <point x="507" y="544"/>
      <point x="514" y="584" type="curve" smooth="yes"/>
      <point x="523" y="630"/>
      <point x="471" y="681"/>
      <point x="377" y="681" type="curve" smooth="yes"/>
      <point x="269" y="681"/>
      <point x="199" y="655"/>
      <point x="177" y="551" type="curve" smooth="yes"/>
    </contour>
  </outline>
</glyph>
<glyph name="eth" format="2">
  <advance width="605" height="962"/>
  <unicode hex="00F0"/>
  <outline>
    <contour>
      <point x="593" y="652" type="curve"/>
      <point x="682" y="705" type="line"/>
      <point x="691" y="693" type="line"/>
      <point x="607" y="643" type="line"/>
      <point x="666" y="603"/>
      <point x="695" y="543"/>
      <point x="679" y="471" type="curve" smooth="yes"/>
      <point x="617" y="178" type="line" smooth="yes"/>
      <point x="588" y="41"/>
      <point x="476" y="-9"/>
      <point x="298" y="-9" type="curve" smooth="yes"/>
      <point x="119" y="-9"/>
      <point x="34" y="46"/>
      <point x="62" y="178" type="curve" smooth="yes"/>
      <point x="78" y="256" type="line"/>
      <point x="107" y="389"/>
      <point x="213" y="434"/>
      <point x="380" y="434" type="curve" smooth="yes"/>
      <point x="470" y="434"/>
      <point x="601" y="401"/>
      <point x="629" y="333" type="curve"/>
      <point x="658" y="471" type="line" smooth="yes"/>
      <point x="675" y="549"/>
      <point x="640" y="599"/>
      <point x="588" y="632" type="curve"/>
      <point x="394" y="517" type="line"/>
      <point x="384" y="529" type="line"/>
      <point x="573" y="641" type="line"/>
      <point x="519" y="670"/>
      <point x="453" y="683"/>
      <point x="408" y="688" type="curve"/>
      <point x="416" y="701" type="line"/>
      <point x="490" y="695"/>
      <point x="548" y="679"/>
    </contour>
    <contour>
      <point x="302" y="11" type="curve" smooth="yes"/>
      <point x="465" y="11"/>
      <point x="570" y="55"/>
      <point x="595" y="173" type="curve" smooth="yes"/>
      <point x="616" y="274" type="line"/>
      <point x="641" y="371"/>
      <point x="477" y="422"/>
      <point x="348" y="417" type="curve" smooth="yes"/>
      <point x="216" y="411"/>
      <point x="123" y="374"/>
      <point x="100" y="262" type="curve" smooth="yes"/>
      <point x="81" y="173" type="line" smooth="yes"/>
      <point x="54" y="49"/>
      <point x="158" y="11"/>
    </contour>
  </outline>
</glyph>
<glyph name="divide" format="2">
  <advance width="384"/>
  <unicode hex="00F7"/>
  <outline>
    <contour>
      <point x="109" y="373" type="line"/>
      <point x="114" y="394" type="line"/>
      <point x="434" y="394" type="line"/>
      <point x="429" y="373" type="line"/>
    </contour>
    <contour>
      <point x="304" y="530" type="curve" smooth="yes"/>
      <point x="314" y="530"/>
      <point x="320" y="522"/>
      <point x="318" y="512" type="curve" smooth="yes"/>
      <point x="316" y="504"/>
      <point x="306" y="496"/>
      <point x="296" y="496" type="curve" smooth="yes"/>
      <point x="288" y="496"/>
      <point x="282" y="504"/>
      <point x="284" y="512" type="curve" smooth="yes"/>
      <point x="286" y="522"/>
      <point x="296" y="530"/>
    </contour>
    <contour>
      <point x="249" y="272" type="curve" smooth="yes"/>
      <point x="259" y="272"/>
      <point x="265" y="265"/>
      <point x="263" y="255" type="curve" smooth="yes"/>
      <point x="261" y="245"/>
      <point x="252" y="239"/>
      <point x="242" y="239" type="curve" smooth="yes"/>
      <point x="234" y="239"/>
      <point x="227" y="245"/>
      <point x="229" y="255" type="curve" smooth="yes"/>
      <point x="231" y="265"/>
      <point x="241" y="272"/>
    </contour>
  </outline>
</glyph>
<glyph name="oslash" format="2">
  <advance width="613" height="962"/>
  <unicode hex="00F8"/>
  <outline>
    <component base="o"/>
    <contour>
      <point x="622" y="514" type="line"/>
      <point x="150" y="-20" type="line"/>
      <point x="126" y="-20" type="line"/>
      <point x="599" y="514" type="line"/>
    </contour>
  </outline>
</glyph>
<glyph name="dcroat" format="2">
  <advance width="648" height="962"/>
  <unicode hex="0111"/>
  <outline>
    <component base="d"/>
    <contour>
      <point x="775" y="597" type="line"/>
      <point x="463" y="597" type="line"/>
      <point x="467" y="617" type="line"/>
      <point x="779" y="617" type="line"/>
    </contour>
  </outline>
</glyph>
<glyph name="Hbar" format="2">
  <advance width="723"/>
  <unicode hex="0126"/>
  <outline>
    <contour>
      <point x="115" y="500" type="line"/>
      <point x="119" y="520" type="line"/>
      <point x="819" y="520" type="line"/>
      <point x="815" y="500" type="line"/>
    </contour>
    <contour>
      <point x="748" y="412" type="line"/>
      <point x="809" y="700" type="line"/>
      <point x="827" y="700" type="line"/>
      <point x="678" y="0" type="line"/>
      <point x="660" y="0" type="line"/>
      <point x="744" y="394" type="line"/>
      <point x="142" y="394" type="line"/>
      <point x="59" y="0" type="line"/>
      <point x="41" y="0" type="line"/>
      <point x="189" y="700" type="line"/>
      <point x="207" y="700" type="line"/>
      <point x="146" y="412" type="line"/>
    </contour>
  </outline>
</glyph>
<glyph name="hbar" format="2">
  <advance width="627"/>
  <unicode hex="0127"/>
  <outline>
    <component base="h" xOffset="-1"/>
    <contour>
      <point x="494" y="597" type="line"/>
      <point x="128" y="597" type="line"/>
      <point x="132" y="617" type="line"/>
      <point x="498" y="617" type="line"/>
    </contour>
  </outline>
</glyph>
<glyph name="dotlessi" format="1">
  <advance width="96" height="962"/>
  <unicode hex="0131"/>
  <outline>
    <contour>
      <point x="38" y="0" type="line"/>
      <point x="144" y="500" type="line"/>
      <point x="162" y="500" type="line"/>
      <point x="56" y="0" type="line"/>
    </contour>
  </outline>
</glyph>
<glyph name="ij" format="2">
  <advance width="647"/>
  <unicode hex="0133"/>
  <outline>
    <contour>
      <point x="208" y="710" type="curve" smooth="yes"/>
      <point x="218" y="710"/>
      <point x="224" y="704"/>
      <point x="221" y="693" type="curve" smooth="yes"/>
      <point x="219" y="684"/>
      <point x="211" y="676"/>
      <point x="201" y="676" type="curve" smooth="yes"/>
      <point x="192" y="676"/>
      <point x="185" y="684"/>
      <point x="187" y="693" type="curve" smooth="yes"/>
      <point x="190" y="704"/>
      <point x="199" y="710"/>
    </contour>
    <contour>
      <point x="755" y="693" type="curve" smooth="yes"/>
      <point x="753" y="684"/>
      <point x="745" y="676"/>
      <point x="735" y="676" type="curve" smooth="yes"/>
      <point x="726" y="676"/>
      <point x="719" y="684"/>
      <point x="721" y="693" type="curve" smooth="yes"/>
      <point x="724" y="704"/>
      <point x="733" y="710"/>
      <point x="742" y="710" type="curve" smooth="yes"/>
      <point x="752" y="710"/>
      <point x="758" y="704"/>
    </contour>
    <contour>
      <point x="687" y="501" type="line"/>
      <point x="708" y="501" type="line"/>
      <point x="588" y="-67" type="line" smooth="yes"/>
      <point x="570" y="-152"/>
      <point x="519" y="-187"/>
      <point x="400" y="-213" type="curve"/>
      <point x="397" y="-196" type="line"/>
      <point x="501" y="-173"/>
      <point x="551" y="-143"/>
      <point x="567" y="-66" type="curve" smooth="yes"/>
      <point x="603" y="105" type="line"/>
      <point x="552" y="37"/>
      <point x="442" y="-4"/>
      <point x="339" y="-8" type="curve" smooth="yes"/>
      <point x="227" y="-12"/>
      <point x="45" y="-9"/>
      <point x="78" y="148" type="curve" smooth="yes"/>
      <point x="153" y="501" type="line"/>
      <point x="173" y="501" type="line"/>
      <point x="98" y="147" type="line" smooth="yes"/>
      <point x="74" y="34"/>
      <point x="180" y="3"/>
      <point x="342" y="10" type="curve" smooth="yes"/>
      <point x="488" y="17"/>
      <point x="600" y="89"/>
      <point x="617" y="170" type="curve" smooth="yes"/>
    </contour>
  </outline>
</glyph>
<glyph name="kgreenlandic" format="1">
  <advance width="615" height="962"/>
  <unicode hex="0138"/>
  <outline>
    <contour>
      <point x="425" y="108" type="line" smooth="yes"/>
      <point x="473" y="44"/>
      <point x="540" y="19"/>
      <point x="595" y="19" type="curve"/>
      <point x="597" y="19" type="line"/>
      <point x="593" y="0" type="line"/>
      <point x="591" y="0" type="line"/>
      <point x="509" y="0"/>
      <point x="446" y="44"/>
      <point x="418" y="81" type="curve" smooth="yes"/>
      <point x="266" y="285" type="line"/>
      <point x="95" y="180" type="line"/>
      <point x="57" y="0" type="line"/>
      <point x="38" y="0" type="line"/>
      <point x="146" y="511" type="line"/>
      <point x="165" y="507" type="line"/>
      <point x="100" y="203" type="line"/>
      <point x="586" y="500" type="line"/>
      <point x="619" y="500" type="line"/>
      <point x="283" y="296" type="line"/>
    </contour>
  </outline>
</glyph>
<glyph name="Eng" format="2">
  <advance width="809"/>
  <unicode hex="014A"/>
  <outline>
    <contour>
      <point x="756" y="-47" type="line" smooth="yes"/>
      <point x="736" y="-143"/>
      <point x="684" y="-187"/>
      <point x="565" y="-213" type="curve"/>
      <point x="563" y="-196" type="line"/>
      <point x="668" y="-171"/>
      <point x="718" y="-134"/>
      <point x="736" y="-46" type="curve" smooth="yes"/>
      <point x="746" y="1" type="line"/>
      <point x="204" y="672" type="line"/>
      <point x="61" y="0" type="line"/>
      <point x="41" y="0" type="line"/>
      <point x="190" y="700" type="line"/>
      <point x="208" y="700" type="line"/>
      <point x="752" y="27" type="line"/>
      <point x="895" y="700" type="line"/>
      <point x="915" y="700" type="line"/>
    </contour>
  </outline>
</glyph>
<glyph name="eng" format="2">
  <advance width="631" height="962"/>
  <unicode hex="014B"/>
  <outline>
    <contour>
      <point x="579" y="-60" type="line" smooth="yes"/>
      <point x="561" y="-145"/>
      <point x="509" y="-181"/>
      <point x="387" y="-208" type="curve"/>
      <point x="382" y="-190" type="line"/>
      <point x="491" y="-165"/>
      <point x="544" y="-138"/>
      <point x="560" y="-60" type="curve" smooth="yes"/>
      <point x="649" y="358" type="line" smooth="yes"/>
      <point x="673" y="472"/>
      <point x="575" y="501"/>
      <point x="412" y="495" type="curve" smooth="yes"/>
      <point x="322" y="492"/>
      <point x="215" y="474"/>
      <point x="154" y="456" type="curve"/>
      <point x="57" y="0" type="line"/>
      <point x="38" y="0" type="line"/>
      <point x="144" y="500" type="line"/>
      <point x="163" y="500" type="line"/>
      <point x="158" y="473" type="line"/>
      <point x="212" y="487"/>
      <point x="317" y="507"/>
      <point x="395" y="510" type="curve" smooth="yes"/>
      <point x="527" y="515"/>
      <point x="701" y="514"/>
      <point x="668" y="357" type="curve" smooth="yes"/>
    </contour>
  </outline>
</glyph>
<glyph name="tbar" format="2">
  <advance width="365"/>
  <unicode hex="0167"/>
  <outline>
    <component base="t" xOffset="38"/>
    <contour>
      <point x="405" y="340" type="line"/>
      <point x="72" y="340" type="line"/>
      <point x="76" y="356" type="line"/>
      <point x="409" y="356" type="line"/>
    </contour>
  </outline>
</glyph>
<glyph name="breve" format="1">
  <advance width="267" height="962"/>
  <unicode hex="02D8"/>
  <outline>
    <contour>
      <point x="396" y="705" type="line"/>
      <point x="394" y="698" type="line" smooth="yes"/>
      <point x="381" y="636"/>
      <point x="321" y="585"/>
      <point x="258" y="585" type="curve" smooth="yes"/>
      <point x="196" y="585"/>
      <point x="155" y="636"/>
      <point x="168" y="698" type="curve" smooth="yes"/>
      <point x="169" y="705" type="line"/>
      <point x="192" y="705" type="line"/>
      <point x="190" y="698" type="line" smooth="yes"/>
      <point x="180" y="649"/>
      <point x="213" y="607"/>
      <point x="263" y="607" type="curve" smooth="yes"/>
      <point x="314" y="607"/>
      <point x="364" y="648"/>
      <point x="375" y="698" type="curve" smooth="yes"/>
      <point x="376" y="705" type="line"/>
    </contour>
  </outline>
</glyph>
<glyph name="ring" format="1">
  <advance width="267" height="962"/>
  <unicode hex="02DA"/>
  <outline>
    <contour>
      <point x="298" y="775" type="curve" smooth="yes"/>
      <point x="360" y="775"/>
      <point x="402" y="726"/>
      <point x="388" y="662" type="curve" smooth="yes"/>
      <point x="374" y="597"/>
      <point x="311" y="548"/>
      <point x="250" y="548" type="curve" smooth="yes"/>
      <point x="187" y="548"/>
      <point x="146" y="597"/>
      <point x="160" y="662" type="curve" smooth="yes"/>
      <point x="174" y="726"/>
      <point x="235" y="775"/>
    </contour>
    <contour>
      <point x="294" y="756" type="curve" smooth="yes"/>
      <point x="269" y="756"/>
      <point x="244" y="747"/>
      <point x="221" y="729" type="curve" smooth="yes"/>
      <point x="199" y="710"/>
      <point x="184" y="688"/>
      <point x="178" y="662" type="curve" smooth="yes"/>
      <point x="172" y="635"/>
      <point x="179" y="610"/>
      <point x="194" y="593" type="curve" smooth="yes"/>
      <point x="208" y="577"/>
      <point x="230" y="567"/>
      <point x="254" y="567" type="curve" smooth="yes"/>
      <point x="280" y="567"/>
      <point x="304" y="576"/>
      <point x="326" y="594" type="curve" smooth="yes"/>
      <point x="348" y="613"/>
      <point x="363" y="636"/>
      <point x="369" y="662" type="curve" smooth="yes"/>
      <point x="374" y="688"/>
      <point x="368" y="710"/>
      <point x="354" y="729" type="curve" smooth="yes"/>
      <point x="340" y="747"/>
      <point x="320" y="756"/>
    </contour>
  </outline>
</glyph>
<glyph name="brevecomb" format="2">
  <advance width="267"/>
  <unicode hex="0306"/>
  <outline>
    <contour>
      <point x="396" y="705" type="line"/>
      <point x="394" y="698" type="line" smooth="yes"/>
      <point x="381" y="636"/>
      <point x="321" y="585"/>
      <point x="258" y="585" type="curve" smooth="yes"/>
      <point x="196" y="585"/>
      <point x="155" y="636"/>
      <point x="168" y="698" type="curve" smooth="yes"/>
      <point x="169" y="705" type="line"/>
      <point x="192" y="705" type="line"/>
      <point x="190" y="698" type="line" smooth="yes"/>
      <point x="180" y="649"/>
      <point x="213" y="607"/>
      <point x="263" y="607" type="curve" smooth="yes"/>
      <point x="314" y="607"/>
      <point x="364" y="648"/>
      <point x="375" y="698" type="curve" smooth="yes"/>
      <point x="376" y="705" type="line"/>
    </contour>
  </outline>
</glyph>
<glyph name="dotaccentcomb" format="2">
  <advance width="267" height="962"/>
  <unicode hex="0307"/>
  <outline>
    <contour>
      <point x="290" y="734" type="curve" smooth="yes"/>
      <point x="299" y="734"/>
      <point x="305" y="727"/>
      <point x="302" y="716" type="curve" smooth="yes"/>
      <point x="300" y="707"/>
      <point x="291" y="699"/>
      <point x="282" y="699" type="curve" smooth="yes"/>
      <point x="273" y="699"/>
      <point x="267" y="707"/>
      <point x="269" y="716" type="curve" smooth="yes"/>
      <point x="272" y="727"/>
      <point x="281" y="734"/>
    </contour>
  </outline>
</glyph>
<glyph name="dieresiscomb" format="2">
  <advance width="267" height="962"/>
  <unicode hex="0308"/>
  <outline>
    <contour>
      <point x="210" y="725" type="curve" smooth="yes"/>
      <point x="219" y="725"/>
      <point x="223" y="719"/>
      <point x="221" y="709" type="curve" smooth="yes"/>
      <point x="219" y="698"/>
      <point x="212" y="692"/>
      <point x="203" y="692" type="curve" smooth="yes"/>
      <point x="191" y="692"/>
      <point x="186" y="698"/>
      <point x="188" y="709" type="curve" smooth="yes"/>
      <point x="190" y="719"/>
      <point x="198" y="725"/>
    </contour>
    <contour>
      <point x="369" y="725" type="curve" smooth="yes"/>
      <point x="378" y="725"/>
      <point x="382" y="719"/>
      <point x="380" y="709" type="curve" smooth="yes"/>
      <point x="378" y="698"/>
      <point x="371" y="692"/>
      <point x="362" y="692" type="curve" smooth="yes"/>
      <point x="350" y="692"/>
      <point x="345" y="698"/>
      <point x="347" y="709" type="curve" smooth="yes"/>
      <point x="349" y="719"/>
      <point x="357" y="725"/>
    </contour>
  </outline>
</glyph>
<glyph name="commaaccent" format="2">
  <advance width="267" height="962"/>
  <unicode hex="0326"/>
  <outline>
    <contour>
      <point x="74" y="-168" type="line"/>
      <point x="96" y="-149"/>
      <point x="107" y="-128"/>
      <point x="112" y="-114" type="curve"/>
      <point x="105" y="-111"/>
      <point x="102" y="-106"/>
      <point x="104" y="-98" type="curve" smooth="yes"/>
      <point x="106" y="-88"/>
      <point x="114" y="-80"/>
      <point x="124" y="-80" type="curve" smooth="yes"/>
      <point x="134" y="-80"/>
      <point x="140" y="-87"/>
      <point x="137" y="-98" type="curve" smooth="yes"/>
      <point x="126" y="-151"/>
      <point x="81" y="-175"/>
      <point x="82" y="-175" type="curve"/>
    </contour>
  </outline>
</glyph>
<glyph name="cedillacomb" format="2">
  <advance width="267"/>
  <unicode hex="0327"/>
  <outline>
    <contour>
      <point x="152" y="0" type="line"/>
      <point x="115" y="-46" type="line"/>
      <point x="136" y="-46"/>
      <point x="140" y="-46"/>
      <point x="145" y="-46" type="curve" smooth="yes"/>
      <point x="205" y="-46"/>
      <point x="231" y="-86"/>
      <point x="220" y="-137" type="curve" smooth="yes"/>
      <point x="208" y="-191"/>
      <point x="164" y="-225"/>
      <point x="111" y="-227" type="curve" smooth="yes"/>
      <point x="65" y="-229"/>
      <point x="44" y="-222"/>
      <point x="12" y="-214" type="curve"/>
      <point x="21" y="-197" type="line"/>
      <point x="20" y="-197"/>
      <point x="63" y="-212"/>
      <point x="113" y="-208" type="curve" smooth="yes"/>
      <point x="132" y="-207"/>
      <point x="187" y="-200"/>
      <point x="200" y="-137" type="curve" smooth="yes"/>
      <point x="209" y="-97"/>
      <point x="185" y="-67"/>
      <point x="143" y="-67" type="curve" smooth="yes"/>
      <point x="128" y="-67"/>
      <point x="107" y="-67"/>
      <point x="86" y="-67" type="curve"/>
      <point x="91" y="-46" type="line"/>
      <point x="131" y="0" type="line"/>
    </contour>
  </outline>
</glyph>
<glyph name="dieresistonoscomb" format="2">
  <advance width="267" height="962"/>
  <unicode hex="0344"/>
  <outline>
    <contour>
      <point x="218" y="692" type="curve" smooth="yes"/>
      <point x="216" y="683"/>
      <point x="207" y="675"/>
      <point x="197" y="675" type="curve" smooth="yes"/>
      <point x="188" y="675"/>
      <point x="181" y="683"/>
      <point x="183" y="692" type="curve" smooth="yes"/>
      <point x="185" y="703"/>
      <point x="195" y="708"/>
      <point x="204" y="708" type="curve" smooth="yes"/>
      <point x="214" y="708"/>
      <point x="220" y="703"/>
    </contour>
    <contour>
      <point x="377" y="692" type="curve" smooth="yes"/>
      <point x="375" y="683"/>
      <point x="365" y="675"/>
      <point x="355" y="675" type="curve" smooth="yes"/>
      <point x="345" y="675"/>
      <point x="341" y="683"/>
      <point x="343" y="692" type="curve" smooth="yes"/>
      <point x="345" y="703"/>
      <point x="352" y="708"/>
      <point x="362" y="708" type="curve" smooth="yes"/>
      <point x="372" y="708"/>
      <point x="379" y="703"/>
    </contour>
    <contour>
      <point x="378" y="827" type="curve" smooth="yes"/>
      <point x="301" y="726" type="line"/>
      <point x="279" y="726" type="line"/>
      <point x="355" y="840" type="line" smooth="yes"/>
      <point x="362" y="852"/>
      <point x="372" y="853"/>
      <point x="378" y="848" type="curve" smooth="yes"/>
      <point x="384" y="844"/>
      <point x="385" y="836"/>
    </contour>
  </outline>
  <guideline angle="90" x="135.745" y="0"/>
</glyph>
<glyph name="tonos" format="1">
  <advance width="267" height="962"/>
  <unicode hex="0384"/>
  <outline>
    <contour>
      <point x="316" y="688" type="curve" smooth="yes"/>
      <point x="239" y="588" type="line"/>
      <point x="218" y="588" type="line"/>
      <point x="294" y="703" type="line" smooth="yes"/>
      <point x="300" y="712"/>
      <point x="310" y="716"/>
      <point x="317" y="712" type="curve" smooth="yes"/>
      <point x="325" y="707"/>
      <point x="323" y="696"/>
    </contour>
  </outline>
</glyph>
<glyph name="dieresistonos" format="2">
  <advance width="267"/>
  <unicode hex="0385"/>
  <outline>
    <contour>
      <point x="218" y="692" type="curve" smooth="yes"/>
      <point x="216" y="683"/>
      <point x="207" y="675"/>
      <point x="197" y="675" type="curve" smooth="yes"/>
      <point x="188" y="675"/>
      <point x="181" y="683"/>
      <point x="183" y="692" type="curve" smooth="yes"/>
      <point x="185" y="703"/>
      <point x="195" y="708"/>
      <point x="204" y="708" type="curve" smooth="yes"/>
      <point x="214" y="708"/>
      <point x="220" y="703"/>
    </contour>
    <contour>
      <point x="377" y="692" type="curve" smooth="yes"/>
      <point x="375" y="683"/>
      <point x="365" y="675"/>
      <point x="355" y="675" type="curve" smooth="yes"/>
      <point x="345" y="675"/>
      <point x="341" y="683"/>
      <point x="343" y="692" type="curve" smooth="yes"/>
      <point x="345" y="703"/>
      <point x="352" y="708"/>
      <point x="362" y="708" type="curve" smooth="yes"/>
      <point x="372" y="708"/>
      <point x="379" y="703"/>
    </contour>
    <contour>
      <point x="371" y="827" type="curve" smooth="yes"/>
      <point x="294" y="726" type="line"/>
      <point x="272" y="726" type="line"/>
      <point x="348" y="840" type="line" smooth="yes"/>
      <point x="355" y="852"/>
      <point x="367" y="853"/>
      <point x="373" y="849" type="curve" smooth="yes"/>
      <point x="379" y="845"/>
      <point x="378" y="836"/>
    </contour>
  </outline>
</glyph>
<glyph name="Gamma" format="1">
  <advance width="546" height="962"/>
  <unicode hex="0393"/>
  <outline>
    <contour>
      <point x="41" y="0" type="line"/>
      <point x="189" y="700" type="line"/>
      <point x="690" y="700" type="line"/>
      <point x="686" y="680" type="line"/>
      <point x="205" y="680" type="line"/>
      <point x="60" y="0" type="line"/>
    </contour>
  </outline>
</glyph>
<glyph name="Deltagreek" format="2">
  <advance width="793"/>
  <unicode hex="0394"/>
  <outline>
    <contour>
      <point x="775" y="0" type="line"/>
      <point x="30" y="0" type="line"/>
      <point x="541" y="700" type="line"/>
      <point x="563" y="700" type="line"/>
    </contour>
    <contour>
      <point x="66" y="20" type="line"/>
      <point x="747" y="20" type="line"/>
      <point x="548" y="682" type="line"/>
    </contour>
  </outline>
</glyph>
<glyph name="Theta" format="2">
  <advance width="698" height="962"/>
  <unicode hex="0398"/>
  <outline>
    <component base="O"/>
    <contour>
      <point x="120" y="360" type="line"/>
      <point x="730" y="360" type="line"/>
      <point x="726" y="340" type="line"/>
      <point x="115" y="340" type="line"/>
    </contour>
  </outline>
  <guideline angle="0" x="0" y="340"/>
</glyph>
<glyph name="Lambda" format="1">
  <advance width="803" height="962"/>
  <unicode hex="039B"/>
  <outline>
    <contour>
      <point x="545" y="676" type="line"/>
      <point x="39" y="0" type="line"/>
      <point x="19" y="0" type="line"/>
      <point x="542" y="700" type="line"/>
      <point x="557" y="700" type="line"/>
      <point x="784" y="0" type="line"/>
      <point x="764" y="0" type="line"/>
    </contour>
  </outline>
</glyph>
<glyph name="Xi" format="2">
  <advance width="816" height="962"/>
  <unicode hex="039E"/>
  <outline>
    <contour>
      <point x="148" y="595" type="line"/>
      <point x="197" y="670"/>
      <point x="252" y="700"/>
      <point x="370" y="700" type="curve" smooth="yes"/>
      <point x="898" y="700" type="line"/>
      <point x="885" y="680" type="line"/>
      <point x="366" y="680" type="line" smooth="yes"/>
      <point x="257" y="680"/>
      <point x="210" y="655"/>
      <point x="167" y="588" type="curve"/>
    </contour>
    <contour>
      <point x="685" y="343" type="line"/>
      <point x="286" y="343" type="line"/>
      <point x="290" y="363" type="line"/>
      <point x="689" y="363" type="line"/>
    </contour>
    <contour>
      <point x="592" y="20" type="line" smooth="yes"/>
      <point x="703" y="20"/>
      <point x="746" y="46"/>
      <point x="790" y="114" type="curve"/>
      <point x="810" y="107" type="line"/>
      <point x="764" y="32"/>
      <point x="707" y="0"/>
      <point x="588" y="0" type="curve" smooth="yes"/>
      <point x="62" y="0" type="line"/>
      <point x="76" y="20" type="line"/>
    </contour>
  </outline>
</glyph>
<glyph name="Upsilon" format="2">
  <advance width="735" height="962"/>
  <unicode hex="03A5"/>
  <outline>
    <contour>
      <point x="727" y="146" type="line" smooth="yes"/>
      <point x="709" y="61"/>
      <point x="644" y="10"/>
      <point x="538" y="-7" type="curve"/>
      <point x="535" y="11" type="line"/>
      <point x="594" y="21"/>
      <point x="686" y="42"/>
      <point x="710" y="153" type="curve" smooth="yes"/>
      <point x="754" y="362" type="line"/>
      <point x="719" y="316"/>
      <point x="610" y="245"/>
      <point x="420" y="245" type="curve" smooth="yes"/>
      <point x="207" y="245"/>
      <point x="98" y="318"/>
      <point x="129" y="464" type="curve" smooth="yes"/>
      <point x="179" y="700" type="line"/>
      <point x="198" y="700" type="line"/>
      <point x="149" y="469" type="line" smooth="yes"/>
      <point x="118" y="325"/>
      <point x="227" y="264"/>
      <point x="431" y="264" type="curve" smooth="yes"/>
      <point x="584" y="264"/>
      <point x="745" y="320"/>
      <point x="771" y="441" type="curve" smooth="yes"/>
      <point x="826" y="700" type="line"/>
      <point x="845" y="700" type="line"/>
    </contour>
  </outline>
</glyph>
<glyph name="Chi" format="2">
  <advance width="806" height="962"/>
  <unicode hex="03A7"/>
  <outline>
    <contour>
      <point x="483" y="376" type="line"/>
      <point x="873" y="700" type="line"/>
      <point x="902" y="700" type="line"/>
      <point x="493" y="363" type="line"/>
      <point x="782" y="0" type="line"/>
      <point x="758" y="0" type="line"/>
      <point x="479" y="351" type="line"/>
      <point x="54" y="0" type="line"/>
      <point x="26" y="0" type="line"/>
      <point x="468" y="365" type="line"/>
      <point x="201" y="700" type="line"/>
      <point x="225" y="700" type="line"/>
    </contour>
  </outline>
</glyph>
<glyph name="Psi" format="2">
  <advance width="854" height="962"/>
  <unicode hex="03A8"/>
  <outline>
    <contour>
      <point x="141" y="426" type="line" smooth="yes"/>
      <point x="111" y="285"/>
      <point x="187" y="230"/>
      <point x="343" y="230" type="curve" smooth="yes"/>
      <point x="461" y="230" type="line"/>
      <point x="561" y="700" type="line"/>
      <point x="580" y="700" type="line"/>
      <point x="480" y="230" type="line"/>
      <point x="610" y="230" type="line" smooth="yes"/>
      <point x="767" y="230"/>
      <point x="864" y="285"/>
      <point x="894" y="426" type="curve" smooth="yes"/>
      <point x="930" y="599" type="line" smooth="yes"/>
      <point x="944" y="663"/>
      <point x="902" y="688"/>
      <point x="872" y="702" type="curve"/>
      <point x="890" y="709" type="line"/>
      <point x="904" y="705"/>
      <point x="965" y="678"/>
      <point x="949" y="600" type="curve" smooth="yes"/>
      <point x="912" y="426" type="line" smooth="yes"/>
      <point x="882" y="288"/>
      <point x="796" y="213"/>
      <point x="606" y="213" type="curve" smooth="yes"/>
      <point x="476" y="213" type="line"/>
      <point x="431" y="0" type="line"/>
      <point x="412" y="0" type="line"/>
      <point x="457" y="213" type="line"/>
      <point x="339" y="213" type="line" smooth="yes"/>
      <point x="150" y="213"/>
      <point x="92" y="288"/>
      <point x="122" y="426" type="curve" smooth="yes"/>
      <point x="180" y="700" type="line"/>
      <point x="199" y="700" type="line"/>
    </contour>
  </outline>
</glyph>
<glyph name="Omegagreek" format="1">
  <advance width="825" height="962"/>
  <unicode hex="03A9"/>
  <outline>
    <contour>
      <point x="821" y="197" type="line" smooth="yes"/>
      <point x="800" y="96"/>
      <point x="718" y="35"/>
      <point x="609" y="20" type="curve"/>
      <point x="792" y="20" type="line"/>
      <point x="797" y="0" type="line"/>
      <point x="455" y="0" type="line"/>
      <point x="459" y="20" type="line"/>
      <point x="621" y="27"/>
      <point x="773" y="55"/>
      <point x="803" y="197" type="curve" smooth="yes"/>
      <point x="865" y="489" type="line" smooth="yes"/>
      <point x="896" y="635"/>
      <point x="808" y="690"/>
      <point x="654" y="690" type="curve" smooth="yes"/>
      <point x="466" y="690" type="line" smooth="yes"/>
      <point x="310" y="690"/>
      <point x="200" y="635"/>
      <point x="169" y="489" type="curve" smooth="yes"/>
      <point x="107" y="197" type="line" smooth="yes"/>
      <point x="77" y="55"/>
      <point x="217" y="27"/>
      <point x="373" y="20" type="curve"/>
      <point x="369" y="0" type="line"/>
      <point x="32" y="0" type="line"/>
      <point x="44" y="20" type="line"/>
      <point x="228" y="20" type="line"/>
      <point x="121" y="38"/>
      <point x="68" y="97"/>
      <point x="89" y="197" type="curve" smooth="yes"/>
      <point x="151" y="489" type="line" smooth="yes"/>
      <point x="181" y="632"/>
      <point x="280" y="707"/>
      <point x="469" y="707" type="curve" smooth="yes"/>
      <point x="657" y="707" type="line" smooth="yes"/>
      <point x="847" y="707"/>
      <point x="913" y="632"/>
      <point x="883" y="489" type="curve" smooth="yes"/>
    </contour>
  </outline>
</glyph>
<glyph name="gamma" format="2">
  <advance width="719" height="962"/>
  <unicode hex="03B3"/>
  <outline>
    <contour>
      <point x="805" y="492" type="line"/>
      <point x="722" y="469"/>
      <point x="693" y="424"/>
      <point x="667" y="385" type="curve" smooth="yes"/>
      <point x="349" y="-92" type="line" smooth="yes"/>
      <point x="321" y="-135"/>
      <point x="258" y="-199"/>
      <point x="118" y="-199" type="curve"/>
      <point x="116" y="-180" type="line"/>
      <point x="259" y="-180"/>
      <point x="308" y="-118"/>
      <point x="334" y="-79" type="curve" smooth="yes"/>
      <point x="383" y="-6" type="line"/>
      <point x="280" y="-2"/>
      <point x="228" y="48"/>
      <point x="209" y="129" type="curve" smooth="yes"/>
      <point x="124" y="500" type="line"/>
      <point x="145" y="500" type="line"/>
      <point x="229" y="140" type="line" smooth="yes"/>
      <point x="249" y="56"/>
      <point x="300" y="14"/>
      <point x="396" y="14" type="curve"/>
      <point x="646" y="387" type="line" smooth="yes"/>
      <point x="690" y="453"/>
      <point x="721" y="484"/>
      <point x="801" y="509" type="curve"/>
    </contour>
  </outline>
</glyph>
<glyph name="delta" format="2">
  <advance width="617" height="962"/>
  <unicode hex="03B4"/>
  <outline>
    <contour>
      <point x="461" y="681" type="line" smooth="yes"/>
      <point x="391" y="681"/>
      <point x="332" y="661"/>
      <point x="321" y="606" type="curve" smooth="yes"/>
      <point x="310" y="555"/>
      <point x="372" y="531"/>
      <point x="423" y="508" type="curve" smooth="yes"/>
      <point x="464" y="490"/>
      <point x="507" y="472"/>
      <point x="548" y="453" type="curve" smooth="yes"/>
      <point x="654" y="406"/>
      <point x="660" y="347"/>
      <point x="647" y="289" type="curve" smooth="yes"/>
      <point x="621" y="164" type="line" smooth="yes"/>
      <point x="594" y="37"/>
      <point x="491" y="-11"/>
      <point x="307" y="-11" type="curve" smooth="yes"/>
      <point x="116" y="-11"/>
      <point x="36" y="43"/>
      <point x="62" y="164" type="curve" smooth="yes"/>
      <point x="97" y="331" type="line" smooth="yes"/>
      <point x="118" y="428"/>
      <point x="212" y="485"/>
      <point x="365" y="509" type="curve"/>
      <point x="348" y="518" type="line" smooth="yes"/>
      <point x="311" y="538"/>
      <point x="292" y="571"/>
      <point x="300" y="605" type="curve" smooth="yes"/>
      <point x="316" y="680"/>
      <point x="396" y="700"/>
      <point x="465" y="700" type="curve" smooth="yes"/>
      <point x="663" y="700" type="line"/>
      <point x="654" y="681" type="line"/>
    </contour>
    <contour>
      <point x="627" y="302" type="line" smooth="yes"/>
      <point x="639" y="359"/>
      <point x="607" y="405"/>
      <point x="511" y="446" type="curve" smooth="yes"/>
      <point x="392" y="496" type="line"/>
      <point x="242" y="474"/>
      <point x="139" y="429"/>
      <point x="118" y="330" type="curve" smooth="yes"/>
      <point x="83" y="164" type="line" smooth="yes"/>
      <point x="63" y="72"/>
      <point x="119" y="8"/>
      <point x="306" y="8" type="curve" smooth="yes"/>
      <point x="498" y="8"/>
      <point x="576" y="62"/>
      <point x="598" y="165" type="curve" smooth="yes"/>
    </contour>
  </outline>
</glyph>
<glyph name="epsilon" format="2">
  <advance width="563" height="962"/>
  <unicode hex="03B5"/>
  <outline>
    <contour>
      <point x="530" y="477" type="line"/>
      <point x="497" y="487"/>
      <point x="417" y="494"/>
      <point x="382" y="494" type="curve" smooth="yes"/>
      <point x="282" y="494"/>
      <point x="169" y="473"/>
      <point x="147" y="386" type="curve" smooth="yes"/>
      <point x="132" y="326"/>
      <point x="190" y="301"/>
      <point x="271" y="301" type="curve" smooth="yes"/>
      <point x="488" y="301" type="line"/>
      <point x="478" y="283" type="line"/>
      <point x="306" y="283" type="line" smooth="yes"/>
      <point x="181" y="283"/>
      <point x="94" y="232"/>
      <point x="78" y="151" type="curve" smooth="yes"/>
      <point x="60" y="61"/>
      <point x="128" y="9"/>
      <point x="287" y="9" type="curve" smooth="yes"/>
      <point x="420" y="9"/>
      <point x="540" y="45"/>
      <point x="537" y="43" type="curve"/>
      <point x="539" y="23" type="line"/>
      <point x="476" y="9"/>
      <point x="374" y="-11"/>
      <point x="287" y="-11" type="curve" smooth="yes"/>
      <point x="82" y="-11"/>
      <point x="39" y="67"/>
      <point x="59" y="154" type="curve" smooth="yes"/>
      <point x="74" y="220"/>
      <point x="126" y="269"/>
      <point x="219" y="288" type="curve"/>
      <point x="131" y="296"/>
      <point x="118" y="343"/>
      <point x="128" y="386" type="curve" smooth="yes"/>
      <point x="146" y="459"/>
      <point x="230" y="511"/>
      <point x="383" y="511" type="curve" smooth="yes"/>
      <point x="433" y="511"/>
      <point x="484" y="506"/>
      <point x="535" y="497" type="curve"/>
    </contour>
  </outline>
</glyph>
<glyph name="lambda" format="2">
  <advance width="709"/>
  <unicode hex="03BB"/>
  <outline>
    <contour>
      <point x="602" y="114" type="line" smooth="yes"/>
      <point x="611" y="74"/>
      <point x="618" y="30"/>
      <point x="694" y="5" type="curve"/>
      <point x="679" y="-8" type="line"/>
      <point x="609" y="16"/>
      <point x="598" y="47"/>
      <point x="582" y="112" type="curve" smooth="yes"/>
      <point x="491" y="487" type="line"/>
      <point x="392" y="487"/>
      <point x="328" y="442"/>
      <point x="275" y="360" type="curve" smooth="yes"/>
      <point x="37" y="-1" type="line"/>
      <point x="19" y="-1" type="line"/>
      <point x="262" y="371" type="line" smooth="yes"/>
      <point x="313" y="450"/>
      <point x="376" y="500"/>
      <point x="486" y="506" type="curve"/>
      <point x="468" y="578" type="line" smooth="yes"/>
      <point x="458" y="617"/>
      <point x="431" y="678"/>
      <point x="290" y="678" type="curve"/>
      <point x="300" y="697" type="line"/>
      <point x="441" y="697"/>
      <point x="475" y="634"/>
      <point x="487" y="590" type="curve" smooth="yes"/>
    </contour>
  </outline>
</glyph>
<glyph name="pi" format="1">
  <advance width="656" height="962"/>
  <unicode hex="03C0"/>
  <outline>
    <contour>
      <point x="618" y="77" type="line" smooth="yes"/>
      <point x="613" y="52"/>
      <point x="622" y="33"/>
      <point x="643" y="21" type="curve"/>
      <point x="629" y="4" type="line"/>
      <point x="604" y="21"/>
      <point x="593" y="44"/>
      <point x="600" y="79" type="curve" smooth="yes"/>
      <point x="686" y="484" type="line"/>
      <point x="160" y="484" type="line"/>
      <point x="57" y="0" type="line"/>
      <point x="38" y="0" type="line"/>
      <point x="144" y="500" type="line"/>
      <point x="708" y="500" type="line"/>
    </contour>
  </outline>
</glyph>
<glyph name="rho" format="2">
  <advance width="623" height="962"/>
  <unicode hex="03C1"/>
  <outline>
    <contour>
      <point x="625" y="161" type="line" smooth="yes"/>
      <point x="597" y="28"/>
      <point x="490" y="-18"/>
      <point x="325" y="-18" type="curve" smooth="yes"/>
      <point x="223" y="-18"/>
      <point x="92" y="11"/>
      <point x="72" y="76" type="curve"/>
      <point x="10" y="-213" type="line"/>
      <point x="-8" y="-207" type="line"/>
      <point x="104" y="321" type="line" smooth="yes"/>
      <point x="133" y="458"/>
      <point x="246" y="508"/>
      <point x="424" y="508" type="curve" smooth="yes"/>
      <point x="603" y="508"/>
      <point x="687" y="453"/>
      <point x="659" y="321" type="curve" smooth="yes"/>
    </contour>
    <contour>
      <point x="639" y="326" type="line" smooth="yes"/>
      <point x="666" y="451"/>
      <point x="564" y="488"/>
      <point x="420" y="488" type="curve" smooth="yes"/>
      <point x="255" y="488"/>
      <point x="150" y="444"/>
      <point x="125" y="326" type="curve" smooth="yes"/>
      <point x="84" y="133" type="line" smooth="yes"/>
      <point x="63" y="37"/>
      <point x="218" y="-3"/>
      <point x="345" y="1" type="curve" smooth="yes"/>
      <point x="481" y="5"/>
      <point x="579" y="42"/>
      <point x="603" y="155" type="curve" smooth="yes"/>
    </contour>
  </outline>
</glyph>
<glyph name="sigma1" format="2">
  <advance width="481" height="962"/>
  <unicode hex="03C2"/>
  <outline>
    <contour>
      <point x="101" y="284" type="line" smooth="yes"/>
      <point x="91" y="235"/>
      <point x="107" y="202"/>
      <point x="183" y="162" type="curve" smooth="yes"/>
      <point x="318" y="92" type="line" smooth="yes"/>
      <point x="382" y="58"/>
      <point x="419" y="39"/>
      <point x="406" y="-22" type="curve" smooth="yes"/>
      <point x="392" y="-90"/>
      <point x="304" y="-121"/>
      <point x="244" y="-143" type="curve"/>
      <point x="238" y="-125" type="line"/>
      <point x="298" y="-104"/>
      <point x="374" y="-78"/>
      <point x="386" y="-22" type="curve" smooth="yes"/>
      <point x="397" y="30"/>
      <point x="356" y="49"/>
      <point x="302" y="77" type="curve" smooth="yes"/>
      <point x="169" y="146" type="line" smooth="yes"/>
      <point x="92" y="186"/>
      <point x="69" y="225"/>
      <point x="81" y="284" type="curve" smooth="yes"/>
      <point x="94" y="343" type="line" smooth="yes"/>
      <point x="118" y="458"/>
      <point x="258" y="505"/>
      <point x="374" y="505" type="curve" smooth="yes"/>
      <point x="486" y="505"/>
      <point x="553" y="471"/>
      <point x="553" y="470" type="curve"/>
      <point x="541" y="455" type="line"/>
      <point x="541" y="453"/>
      <point x="471" y="487"/>
      <point x="371" y="487" type="curve" smooth="yes"/>
      <point x="281" y="487"/>
      <point x="137" y="452"/>
      <point x="115" y="349" type="curve" smooth="yes"/>
    </contour>
  </outline>
</glyph>
<glyph name="tau" format="2">
  <advance width="494" height="962"/>
  <unicode hex="03C4"/>
  <outline>
    <contour>
      <point x="282" y="133" type="line" smooth="yes"/>
      <point x="270" y="79"/>
      <point x="262" y="24"/>
      <point x="370" y="4" type="curve"/>
      <point x="359" y="-13" type="line"/>
      <point x="250" y="11"/>
      <point x="244" y="53"/>
      <point x="261" y="133" type="curve" smooth="yes"/>
      <point x="335" y="481" type="line"/>
      <point x="120" y="481" type="line"/>
      <point x="124" y="500" type="line"/>
      <point x="579" y="500" type="line"/>
      <point x="575" y="481" type="line"/>
      <point x="356" y="481" type="line"/>
    </contour>
  </outline>
</glyph>
<glyph name="phi" format="2">
  <advance width="849"/>
  <unicode hex="03C6"/>
  <outline>
    <contour>
      <point x="99" y="324" type="line" smooth="yes"/>
      <point x="121" y="426"/>
      <point x="190" y="478"/>
      <point x="313" y="504" type="curve"/>
      <point x="315" y="487" type="line"/>
      <point x="221" y="468"/>
      <point x="141" y="430"/>
      <point x="119" y="326" type="curve" smooth="yes"/>
      <point x="86" y="172" type="line" smooth="yes"/>
      <point x="63" y="63"/>
      <point x="134" y="10"/>
      <point x="307" y="10" type="curve" smooth="yes"/>
      <point x="415" y="10" type="line"/>
      <point x="495" y="389" type="line" smooth="yes"/>
      <point x="508" y="451"/>
      <point x="576" y="507"/>
      <point x="670" y="508" type="curve" smooth="yes"/>
      <point x="846" y="510"/>
      <point x="913" y="433"/>
      <point x="888" y="317" type="curve" smooth="yes"/>
      <point x="859" y="179" type="line" smooth="yes"/>
      <point x="833" y="58"/>
      <point x="740" y="-7"/>
      <point x="549" y="-7" type="curve" smooth="yes"/>
      <point x="431" y="-7" type="line"/>
      <point x="387" y="-212" type="line"/>
      <point x="369" y="-206" type="line"/>
      <point x="411" y="-7" type="line"/>
      <point x="303" y="-7" type="line" smooth="yes"/>
      <point x="110" y="-7"/>
      <point x="42" y="56"/>
      <point x="68" y="177" type="curve" smooth="yes"/>
    </contour>
    <contour>
      <point x="553" y="10" type="line" smooth="yes"/>
      <point x="724" y="10"/>
      <point x="817" y="66"/>
      <point x="840" y="176" type="curve" smooth="yes"/>
      <point x="872" y="327" type="line" smooth="yes"/>
      <point x="887" y="396"/>
      <point x="854" y="491"/>
      <point x="674" y="491" type="curve" smooth="yes"/>
      <point x="589" y="491"/>
      <point x="527" y="448"/>
      <point x="513" y="382" type="curve" smooth="yes"/>
      <point x="434" y="10" type="line"/>
    </contour>
  </outline>
</glyph>
<glyph name="psi" format="2">
  <advance width="849" height="962"/>
  <unicode hex="03C8"/>
  <outline>
    <contour>
      <point x="880" y="506" type="line"/>
      <point x="911" y="472"/>
      <point x="912" y="433"/>
      <point x="902" y="387" type="curve" smooth="yes"/>
      <point x="858" y="179" type="line" smooth="yes"/>
      <point x="832" y="58"/>
      <point x="736" y="-7"/>
      <point x="545" y="-7" type="curve" smooth="yes"/>
      <point x="437" y="-7" type="line"/>
      <point x="393" y="-212" type="line"/>
      <point x="374" y="-206" type="line"/>
      <point x="417" y="-7" type="line"/>
      <point x="299" y="-7" type="line" smooth="yes"/>
      <point x="110" y="-7"/>
      <point x="41" y="58"/>
      <point x="67" y="179" type="curve" smooth="yes"/>
      <point x="135" y="500" type="line"/>
      <point x="154" y="500" type="line"/>
      <point x="86" y="178" type="line" smooth="yes"/>
      <point x="63" y="69"/>
      <point x="132" y="10"/>
      <point x="302" y="10" type="curve" smooth="yes"/>
      <point x="420" y="10" type="line"/>
      <point x="524" y="500" type="line"/>
      <point x="544" y="500" type="line"/>
      <point x="440" y="10" type="line"/>
      <point x="546" y="10" type="line" smooth="yes"/>
      <point x="710" y="10"/>
      <point x="812" y="58"/>
      <point x="836" y="171" type="curve" smooth="yes"/>
      <point x="883" y="389" type="line" smooth="yes"/>
      <point x="894" y="444"/>
      <point x="888" y="469"/>
      <point x="861" y="496" type="curve"/>
    </contour>
  </outline>
</glyph>
<glyph name="uni0409" format="2">
  <advance width="1237"/>
  <unicode hex="0409"/>
  <outline>
    <contour>
      <point x="1051" y="411" type="line" smooth="yes"/>
      <point x="1254" y="411"/>
      <point x="1274" y="315"/>
      <point x="1260" y="251" type="curve" smooth="yes"/>
      <point x="1243" y="168" type="line" smooth="yes"/>
      <point x="1217" y="49"/>
      <point x="1115" y="-11"/>
      <point x="898" y="-11" type="curve" smooth="yes"/>
      <point x="841" y="-11"/>
      <point x="630" y="-1"/>
      <point x="634" y="-1" type="curve"/>
      <point x="779" y="683" type="line"/>
      <point x="693" y="683" type="line" smooth="yes"/>
      <point x="562" y="683"/>
      <point x="512" y="617"/>
      <point x="486" y="578" type="curve" smooth="yes"/>
      <point x="175" y="112" type="line" smooth="yes"/>
      <point x="131" y="47"/>
      <point x="104" y="18"/>
      <point x="25" y="-8" type="curve"/>
      <point x="17" y="5" type="line"/>
      <point x="106" y="34"/>
      <point x="131" y="77"/>
      <point x="158" y="117" type="curve" smooth="yes"/>
      <point x="473" y="590" type="line" smooth="yes"/>
      <point x="503" y="634"/>
      <point x="560" y="700"/>
      <point x="691" y="700" type="curve" smooth="yes"/>
      <point x="804" y="700" type="line"/>
      <point x="742" y="411" type="line"/>
    </contour>
    <contour>
      <point x="1220" y="162" type="curve" smooth="yes"/>
      <point x="1239" y="249" type="line" smooth="yes"/>
      <point x="1255" y="323"/>
      <point x="1205" y="392"/>
      <point x="1049" y="392" type="curve" smooth="yes"/>
      <point x="738" y="392" type="line"/>
      <point x="659" y="17" type="line"/>
      <point x="663" y="16"/>
      <point x="836" y="7"/>
      <point x="901" y="7" type="curve" smooth="yes"/>
      <point x="1136" y="7"/>
      <point x="1205" y="89"/>
    </contour>
  </outline>
</glyph>
<glyph name="uni040A" format="1">
  <advance width="1211" height="962"/>
  <unicode hex="040A"/>
  <outline>
    <contour>
      <point x="1026" y="412" type="line" smooth="yes"/>
      <point x="1228" y="412"/>
      <point x="1252" y="335"/>
      <point x="1236" y="261" type="curve" smooth="yes"/>
      <point x="1215" y="158" type="line" smooth="yes"/>
      <point x="1187" y="28"/>
      <point x="1088" y="-12"/>
      <point x="870" y="-12" type="curve" smooth="yes"/>
      <point x="813" y="-12"/>
      <point x="610" y="0"/>
      <point x="610" y="0" type="curve"/>
      <point x="694" y="394" type="line"/>
      <point x="144" y="394" type="line"/>
      <point x="60" y="0" type="line"/>
      <point x="42" y="0" type="line"/>
      <point x="191" y="700" type="line"/>
      <point x="209" y="700" type="line"/>
      <point x="148" y="412" type="line"/>
      <point x="698" y="412" type="line"/>
      <point x="759" y="700" type="line"/>
      <point x="778" y="700" type="line"/>
      <point x="717" y="412" type="line"/>
    </contour>
    <contour>
      <point x="1194" y="152" type="curve" smooth="yes"/>
      <point x="1217" y="259" type="line" smooth="yes"/>
      <point x="1235" y="343"/>
      <point x="1179" y="394"/>
      <point x="1023" y="394" type="curve" smooth="yes"/>
      <point x="713" y="394" type="line"/>
      <point x="632" y="16" type="line"/>
      <point x="632" y="16"/>
      <point x="768" y="6"/>
      <point x="874" y="6" type="curve" smooth="yes"/>
      <point x="1110" y="6"/>
      <point x="1177" y="69"/>
    </contour>
  </outline>
</glyph>
<glyph name="uni040B" format="1">
  <advance width="852" height="962"/>
  <unicode hex="040B"/>
  <outline>
    <component base="T" xOffset="-1.5"/>
    <contour>
      <point x="658" y="511" type="curve" smooth="yes"/>
      <point x="793" y="511"/>
      <point x="915" y="486"/>
      <point x="886" y="346" type="curve" smooth="yes"/>
      <point x="812" y="0" type="line"/>
      <point x="793" y="0" type="line"/>
      <point x="867" y="347" type="line" smooth="yes"/>
      <point x="890" y="454"/>
      <point x="804" y="495"/>
      <point x="660" y="495" type="curve" smooth="yes"/>
      <point x="584" y="495"/>
      <point x="486" y="480"/>
      <point x="405" y="455" type="curve"/>
      <point x="409" y="473" type="line"/>
      <point x="461" y="487"/>
      <point x="567" y="511"/>
    </contour>
  </outline>
</glyph>
<glyph name="uni040F" format="1">
  <advance width="734" height="962"/>
  <unicode hex="040F"/>
  <outline>
    <contour>
      <point x="838" y="700" type="line"/>
      <point x="689" y="0" type="line"/>
      <point x="376" y="0" type="line"/>
      <point x="354" y="-97" type="line"/>
      <point x="335" y="-97" type="line"/>
      <point x="355" y="0" type="line"/>
      <point x="43" y="0" type="line"/>
      <point x="192" y="700" type="line"/>
      <point x="211" y="700" type="line"/>
      <point x="66" y="18" type="line"/>
      <point x="674" y="18" type="line"/>
      <point x="819" y="700" type="line"/>
    </contour>
  </outline>
</glyph>
<glyph name="uni0411" format="2">
  <advance width="652" height="962"/>
  <unicode hex="0411"/>
  <outline>
    <component base="uni042C"/>
    <contour>
      <point x="198" y="680" type="line"/>
      <point x="202" y="700" type="line"/>
      <point x="713" y="700" type="line"/>
      <point x="709" y="680" type="line"/>
    </contour>
  </outline>
</glyph>
<glyph name="uni0416" format="2">
  <advance width="1000" height="962"/>
  <unicode hex="0416"/>
  <outline>
    <contour>
      <point x="953" y="0" type="line"/>
      <point x="672" y="353" type="line"/>
      <point x="581" y="353" type="line"/>
      <point x="506" y="0" type="line"/>
      <point x="486" y="0" type="line"/>
      <point x="561" y="353" type="line"/>
      <point x="473" y="353" type="line"/>
      <point x="47" y="0" type="line"/>
      <point x="20" y="0" type="line"/>
      <point x="461" y="363" type="line"/>
      <point x="195" y="700" type="line"/>
      <point x="218" y="700" type="line"/>
      <point x="478" y="373" type="line"/>
      <point x="565" y="373" type="line"/>
      <point x="635" y="700" type="line"/>
      <point x="654" y="700" type="line"/>
      <point x="585" y="373" type="line"/>
      <point x="673" y="373" type="line"/>
      <point x="1073" y="700" type="line"/>
      <point x="1097" y="700" type="line"/>
      <point x="688" y="363" type="line"/>
      <point x="978" y="0" type="line"/>
    </contour>
  </outline>
</glyph>
<glyph name="uni0418" format="2">
  <advance width="823"/>
  <unicode hex="0418"/>
  <outline>
    <contour>
      <point x="189" y="700" type="line"/>
      <point x="209" y="700" type="line"/>
      <point x="65" y="25" type="line"/>
      <point x="909" y="700" type="line"/>
      <point x="929" y="700" type="line"/>
      <point x="780" y="0" type="line"/>
      <point x="761" y="0" type="line"/>
      <point x="904" y="673" type="line"/>
      <point x="60" y="0" type="line"/>
      <point x="41" y="0" type="line"/>
    </contour>
  </outline>
</glyph>
<glyph name="uni041B" format="2">
  <advance width="761"/>
  <unicode hex="041B"/>
  <outline>
    <contour>
      <point x="704" y="700" type="curve" smooth="yes"/>
      <point x="880" y="700" type="line"/>
      <point x="731" y="-1" type="line"/>
      <point x="713" y="-1" type="line"/>
      <point x="858" y="683" type="line"/>
      <point x="706" y="683" type="line" smooth="yes"/>
      <point x="585" y="683"/>
      <point x="526" y="617"/>
      <point x="500" y="578" type="curve" smooth="yes"/>
      <point x="190" y="112" type="line" smooth="yes"/>
      <point x="146" y="47"/>
      <point x="117" y="18"/>
      <point x="39" y="-8" type="curve"/>
      <point x="31" y="5" type="line"/>
      <point x="119" y="34"/>
      <point x="146" y="77"/>
      <point x="173" y="117" type="curve" smooth="yes"/>
      <point x="487" y="590" type="line"/>
      <point x="518" y="634"/>
      <point x="583" y="700"/>
    </contour>
  </outline>
</glyph>
<glyph name="uni0427" format="2">
  <advance width="713" height="962"/>
  <unicode hex="0427"/>
  <outline>
    <contour>
      <point x="837" y="700" type="line"/>
      <point x="689" y="0" type="line"/>
      <point x="669" y="0" type="line"/>
      <point x="746" y="360" type="line"/>
      <point x="712" y="320"/>
      <point x="603" y="245"/>
      <point x="412" y="245" type="curve" smooth="yes"/>
      <point x="199" y="245"/>
      <point x="85" y="299"/>
      <point x="116" y="445" type="curve" smooth="yes"/>
      <point x="170" y="700" type="line"/>
      <point x="189" y="700" type="line"/>
      <point x="136" y="449" type="line" smooth="yes"/>
      <point x="105" y="305"/>
      <point x="220" y="264"/>
      <point x="424" y="264" type="curve" smooth="yes"/>
      <point x="577" y="264"/>
      <point x="737" y="320"/>
      <point x="761" y="431" type="curve" smooth="yes"/>
      <point x="818" y="700" type="line"/>
    </contour>
  </outline>
</glyph>
<glyph name="uni0428" format="1">
  <advance width="917" height="962"/>
  <unicode hex="0428"/>
  <outline>
    <contour>
      <point x="1005" y="700" type="line"/>
      <point x="1026" y="700" type="line"/>
      <point x="878" y="0" type="line"/>
      <point x="44" y="0" type="line"/>
      <point x="192" y="700" type="line"/>
      <point x="212" y="700" type="line"/>
      <point x="67" y="18" type="line"/>
      <point x="452" y="18" type="line"/>
      <point x="597" y="700" type="line"/>
      <point x="620" y="700" type="line"/>
      <point x="475" y="18" type="line"/>
      <point x="860" y="18" type="line"/>
    </contour>
  </outline>
</glyph>
<glyph name="uni0429" format="2">
  <advance width="917"/>
  <unicode hex="0429"/>
  <outline>
    <component base="uni0428"/>
    <contour>
      <point x="872" y="18" type="line"/>
      <point x="907" y="18" type="line"/>
      <point x="885" y="-87" type="line"/>
      <point x="867" y="-87" type="line"/>
      <point x="880" y="0" type="line"/>
      <point x="868" y="0" type="line"/>
    </contour>
  </outline>
</glyph>
<glyph name="uni042A" format="1">
  <advance width="716" height="962"/>
  <unicode hex="042A"/>
  <outline>
    <component base="uni042C" xOffset="68"/>
    <contour>
      <point x="150" y="700" type="line"/>
      <point x="268" y="700" type="line"/>
      <point x="264" y="680" type="line"/>
      <point x="256" y="680" type="line"/>
      <point x="146" y="683" type="line"/>
    </contour>
  </outline>
</glyph>
<glyph name="uni042F" format="2">
  <advance width="726"/>
  <unicode hex="042F"/>
  <outline>
    <contour>
      <point x="427" y="700" type="curve" smooth="yes"/>
      <point x="842" y="700" type="line"/>
      <point x="693" y="0" type="line"/>
      <point x="674" y="0" type="line"/>
      <point x="734" y="281" type="line"/>
      <point x="389" y="281" type="line" smooth="yes"/>
      <point x="371" y="281"/>
      <point x="348" y="281"/>
      <point x="330" y="282" type="curve"/>
      <point x="65" y="0" type="line"/>
      <point x="41" y="0" type="line"/>
      <point x="305" y="283" type="line"/>
      <point x="152" y="292"/>
      <point x="117" y="356"/>
      <point x="146" y="494" type="curve" smooth="yes"/>
      <point x="176" y="633"/>
      <point x="243" y="700"/>
    </contour>
    <contour>
      <point x="354" y="300" type="curve" smooth="yes"/>
      <point x="738" y="300" type="line"/>
      <point x="819" y="680" type="line"/>
      <point x="422" y="680" type="line" smooth="yes"/>
      <point x="254" y="680"/>
      <point x="192" y="621"/>
      <point x="165" y="494" type="curve" smooth="yes"/>
      <point x="136" y="358"/>
      <point x="171" y="300"/>
    </contour>
  </outline>
</glyph>
<glyph name="uni0431" format="2">
  <advance width="612" height="962"/>
  <unicode hex="0431"/>
  <outline>
    <contour>
      <point x="419" y="512" type="curve" smooth="yes"/>
      <point x="597" y="512"/>
      <point x="681" y="456"/>
      <point x="653" y="325" type="curve" smooth="yes"/>
      <point x="621" y="174" type="line" smooth="yes"/>
      <point x="594" y="47"/>
      <point x="489" y="-11"/>
      <point x="308" y="-11" type="curve" smooth="yes"/>
      <point x="114" y="-11"/>
      <point x="40" y="56"/>
      <point x="65" y="174" type="curve" smooth="yes"/>
      <point x="128" y="471" type="line" smooth="yes"/>
      <point x="141" y="531"/>
      <point x="176" y="582"/>
      <point x="240" y="624" type="curve" smooth="yes"/>
      <point x="297" y="661"/>
      <point x="386" y="692"/>
      <point x="487" y="701" type="curve"/>
      <point x="487" y="687" type="line"/>
      <point x="384" y="673"/>
      <point x="308" y="648"/>
      <point x="257" y="617" type="curve" smooth="yes"/>
      <point x="198" y="581"/>
      <point x="160" y="534"/>
      <point x="146" y="469" type="curve" smooth="yes"/>
      <point x="134" y="414" type="line"/>
      <point x="187" y="486"/>
      <point x="296" y="512"/>
    </contour>
    <contour>
      <point x="415" y="494" type="curve" smooth="yes"/>
      <point x="248" y="494"/>
      <point x="141" y="449"/>
      <point x="118" y="339" type="curve" smooth="yes"/>
      <point x="83" y="174" type="line" smooth="yes"/>
      <point x="60" y="65"/>
      <point x="144" y="7"/>
      <point x="311" y="7" type="curve" smooth="yes"/>
      <point x="482" y="7"/>
      <point x="577" y="63"/>
      <point x="601" y="174" type="curve" smooth="yes"/>
      <point x="634" y="329" type="line" smooth="yes"/>
      <point x="661" y="455"/>
      <point x="557" y="494"/>
    </contour>
  </outline>
</glyph>
<glyph name="uni0432" format="2">
  <advance width="638"/>
  <unicode hex="0432"/>
  <outline>
    <contour>
      <point x="509" y="294" type="curve"/>
      <point x="605" y="276"/>
      <point x="661" y="233"/>
      <point x="643" y="152" type="curve" smooth="yes"/>
      <point x="623" y="55"/>
      <point x="541" y="-11"/>
      <point x="336" y="-11" type="curve" smooth="yes"/>
      <point x="216" y="-11"/>
      <point x="48" y="-1"/>
      <point x="35" y="0" type="curve"/>
      <point x="141" y="501" type="line"/>
      <point x="141" y="501"/>
      <point x="300" y="511"/>
      <point x="447" y="511" type="curve" smooth="yes"/>
      <point x="606" y="511"/>
      <point x="666" y="467"/>
      <point x="650" y="394" type="curve" smooth="yes"/>
      <point x="639" y="349"/>
      <point x="588" y="309"/>
    </contour>
    <contour>
      <point x="440" y="494" type="curve" smooth="yes"/>
      <point x="308" y="494"/>
      <point x="202" y="489"/>
      <point x="156" y="486" type="curve"/>
      <point x="117" y="300" type="line"/>
      <point x="438" y="300" type="line" smooth="yes"/>
      <point x="519" y="300"/>
      <point x="618" y="334"/>
      <point x="632" y="394" type="curve" smooth="yes"/>
      <point x="652" y="481"/>
      <point x="540" y="494"/>
    </contour>
    <contour>
      <point x="344" y="9" type="curve" smooth="yes"/>
      <point x="493" y="9"/>
      <point x="603" y="47"/>
      <point x="625" y="149" type="curve" smooth="yes"/>
      <point x="643" y="236"/>
      <point x="572" y="282"/>
      <point x="428" y="282" type="curve" smooth="yes"/>
      <point x="113" y="282" type="line"/>
      <point x="57" y="19" type="line"/>
      <point x="98" y="17"/>
      <point x="209" y="9"/>
    </contour>
  </outline>
</glyph>
<glyph name="uni0433" format="1">
  <advance width="458" height="962"/>
  <unicode hex="0433"/>
  <outline>
    <contour>
      <point x="140" y="500" type="line"/>
      <point x="553" y="500" type="line"/>
      <point x="549" y="482" type="line"/>
      <point x="156" y="482" type="line"/>
      <point x="54" y="0" type="line"/>
      <point x="34" y="0" type="line"/>
    </contour>
  </outline>
</glyph>
<glyph name="uni0434" format="2">
  <advance width="702" height="962"/>
  <unicode hex="0434"/>
  <outline>
    <contour>
      <point x="638" y="18" type="line"/>
      <point x="694" y="18" type="line"/>
      <point x="672" y="-87" type="line"/>
      <point x="656" y="-87" type="line"/>
      <point x="670" y="0" type="line"/>
      <point x="28" y="0" type="line"/>
      <point x="8" y="-87" type="line"/>
      <point x="-9" y="-87" type="line"/>
      <point x="13" y="18" type="line"/>
      <point x="58" y="18" type="line"/>
      <point x="306" y="390" type="line" smooth="yes"/>
      <point x="335" y="434"/>
      <point x="383" y="500"/>
      <point x="524" y="500" type="curve" smooth="yes"/>
      <point x="740" y="500" type="line"/>
    </contour>
    <contour>
      <point x="79" y="18" type="line"/>
      <point x="618" y="18" type="line"/>
      <point x="717" y="483" type="line"/>
      <point x="527" y="483" type="line" smooth="yes"/>
      <point x="386" y="483"/>
      <point x="345" y="417"/>
      <point x="318" y="378" type="curve" smooth="yes"/>
    </contour>
  </outline>
</glyph>
<glyph name="uni0438" format="1">
  <advance width="631" height="962"/>
  <unicode hex="0438"/>
  <outline>
    <contour>
      <point x="165" y="500" type="line"/>
      <point x="65" y="26" type="line"/>
      <point x="678" y="500" type="line"/>
      <point x="698" y="500" type="line"/>
      <point x="592" y="0" type="line"/>
      <point x="572" y="0" type="line"/>
      <point x="673" y="474" type="line"/>
      <point x="59" y="0" type="line"/>
      <point x="38" y="0" type="line"/>
      <point x="144" y="500" type="line"/>
    </contour>
  </outline>
</glyph>
<glyph name="uni043B" format="2">
  <advance width="688"/>
  <unicode hex="043B"/>
  <outline>
    <contour>
      <point x="561" y="500" type="curve" smooth="yes"/>
      <point x="755" y="500" type="line"/>
      <point x="649" y="0" type="line"/>
      <point x="629" y="0" type="line"/>
      <point x="732" y="483" type="line"/>
      <point x="558" y="483" type="line" smooth="yes"/>
      <point x="417" y="483"/>
      <point x="362" y="418"/>
      <point x="336" y="379" type="curve" smooth="yes"/>
      <point x="159" y="113" type="line" smooth="yes"/>
      <point x="116" y="48"/>
      <point x="90" y="19"/>
      <point x="12" y="-7" type="curve"/>
      <point x="2" y="6" type="line"/>
      <point x="89" y="35"/>
      <point x="115" y="78"/>
      <point x="141" y="118" type="curve" smooth="yes"/>
      <point x="322" y="391" type="line" smooth="yes"/>
      <point x="351" y="435"/>
      <point x="420" y="500"/>
    </contour>
  </outline>
</glyph>
<glyph name="uni044A" format="2">
  <advance width="709" height="962"/>
  <unicode hex="044A"/>
  <outline>
    <component base="uni044C" xOffset="69"/>
    <contour>
      <point x="106" y="500" type="line"/>
      <point x="225" y="500" type="line"/>
      <point x="221" y="480" type="line"/>
      <point x="208" y="480" type="line"/>
      <point x="103" y="483" type="line"/>
    </contour>
  </outline>
</glyph>
<glyph name="uni044C" format="2">
  <advance width="646" height="962"/>
  <unicode hex="044C"/>
  <outline>
    <contour>
      <point x="453" y="303" type="line" smooth="yes"/>
      <point x="603" y="303"/>
      <point x="669" y="252"/>
      <point x="648" y="154" type="curve" smooth="yes"/>
      <point x="629" y="67"/>
      <point x="556" y="-9"/>
      <point x="351" y="-9" type="curve" smooth="yes"/>
      <point x="231" y="-9"/>
      <point x="53" y="1"/>
      <point x="39" y="2" type="curve"/>
      <point x="145" y="500" type="line"/>
      <point x="166" y="500" type="line"/>
      <point x="124" y="303" type="line"/>
    </contour>
    <contour>
      <point x="359" y="10" type="curve" smooth="yes"/>
      <point x="508" y="10"/>
      <point x="606" y="56"/>
      <point x="626" y="151" type="curve" smooth="yes"/>
      <point x="645" y="238"/>
      <point x="598" y="285"/>
      <point x="443" y="285" type="curve" smooth="yes"/>
      <point x="121" y="285" type="line"/>
      <point x="64" y="21" type="line"/>
      <point x="105" y="19"/>
      <point x="223" y="10"/>
    </contour>
  </outline>
</glyph>
<glyph name="uni044D" format="1">
  <advance width="541" height="962"/>
  <unicode hex="044D"/>
  <outline>
    <contour>
      <point x="134" y="460" type="curve"/>
      <point x="129" y="478" type="line"/>
      <point x="198" y="499"/>
      <point x="272" y="510"/>
      <point x="341" y="510" type="curve" smooth="yes"/>
      <point x="524" y="510"/>
      <point x="601" y="440"/>
      <point x="576" y="324" type="curve" smooth="yes"/>
      <point x="542" y="164" type="line" smooth="yes"/>
      <point x="514" y="33"/>
      <point x="388" y="-9"/>
      <point x="213" y="-11" type="curve" smooth="yes"/>
      <point x="147" y="-12"/>
      <point x="82" y="-5"/>
      <point x="25" y="5" type="curve"/>
      <point x="33" y="24" type="line"/>
      <point x="32" y="25"/>
      <point x="99" y="9"/>
      <point x="214" y="9" type="curve" smooth="yes"/>
      <point x="373" y="9"/>
      <point x="497" y="44"/>
      <point x="523" y="166" type="curve" smooth="yes"/>
      <point x="557" y="324" type="line" smooth="yes"/>
      <point x="580" y="433"/>
      <point x="496" y="491"/>
      <point x="337" y="491" type="curve" smooth="yes"/>
      <point x="274" y="491"/>
      <point x="202" y="482"/>
    </contour>
    <contour>
      <point x="156" y="263" type="line"/>
      <point x="153" y="281" type="line"/>
      <point x="554" y="281" type="line"/>
      <point x="550" y="263" type="line"/>
    </contour>
  </outline>
</glyph>
<glyph name="uni044E" format="2">
  <advance width="845" height="962"/>
  <unicode hex="044E"/>
  <outline>
    <component base="o" xOffset="227.787" yOffset="-1"/>
    <component base="dotlessi"/>
    <contour>
      <point x="103.063" y="259" type="line"/>
      <point x="319.063" y="259" type="line"/>
      <point x="315.237" y="241" type="line"/>
      <point x="99.2366" y="241" type="line"/>
    </contour>
  </outline>
</glyph>
<glyph name="uni044F" format="1">
  <advance width="644" height="962"/>
  <unicode hex="044F"/>
  <outline>
    <contour>
      <point x="397" y="510" type="curve" smooth="yes"/>
      <point x="551" y="510"/>
      <point x="693" y="500"/>
      <point x="706" y="499" type="curve"/>
      <point x="600" y="0" type="line"/>
      <point x="581" y="0" type="line"/>
      <point x="623" y="197" type="line"/>
      <point x="335" y="197" type="line" smooth="yes"/>
      <point x="318" y="197"/>
      <point x="272" y="197"/>
      <point x="257" y="199" type="curve"/>
      <point x="71" y="0" type="line"/>
      <point x="41" y="0" type="line"/>
      <point x="231" y="203" type="line"/>
      <point x="129" y="217"/>
      <point x="84" y="275"/>
      <point x="100" y="347" type="curve" smooth="yes"/>
      <point x="118" y="434"/>
      <point x="191" y="510"/>
    </contour>
    <contour>
      <point x="305" y="215" type="curve" smooth="yes"/>
      <point x="627" y="215" type="line"/>
      <point x="683" y="480" type="line"/>
      <point x="644" y="482"/>
      <point x="525" y="490"/>
      <point x="388" y="490" type="curve" smooth="yes"/>
      <point x="235" y="490"/>
      <point x="139" y="443"/>
      <point x="119" y="348" type="curve" smooth="yes"/>
      <point x="103" y="271"/>
      <point x="171" y="215"/>
    </contour>
  </outline>
</glyph>
<glyph name="uni0454" format="2">
  <advance width="539"/>
  <unicode hex="0454"/>
  <outline>
    <contour>
      <point x="484" y="263" type="line"/>
      <point x="102.283" y="263" type="line"/>
      <point x="84" y="176" type="line" smooth="yes"/>
      <point x="54" y="34"/>
      <point x="165" y="9"/>
      <point x="324" y="9" type="curve" smooth="yes"/>
      <point x="422" y="9"/>
      <point x="495" y="23"/>
      <point x="511" y="25" type="curve"/>
      <point x="511" y="5" type="line"/>
      <point x="450" y="-6"/>
      <point x="381" y="-12"/>
      <point x="317" y="-11" type="curve" smooth="yes"/>
      <point x="142" y="-9"/>
      <point x="32" y="23"/>
      <point x="64" y="174" type="curve" smooth="yes"/>
      <point x="94" y="314" type="line" smooth="yes"/>
      <point x="123" y="450"/>
      <point x="227" y="510"/>
      <point x="410" y="510" type="curve" smooth="yes"/>
      <point x="479" y="510"/>
      <point x="549" y="499"/>
      <point x="609" y="478" type="curve"/>
      <point x="597" y="459" type="line"/>
      <point x="537" y="481"/>
      <point x="469" y="491"/>
      <point x="406" y="491" type="curve" smooth="yes"/>
      <point x="247" y="491"/>
      <point x="141" y="443"/>
      <point x="113" y="314" type="curve" smooth="yes"/>
      <point x="106.065" y="281" type="line"/>
      <point x="498" y="281" type="line"/>
    </contour>
  </outline>
</glyph>
<glyph name="uni0459" format="2">
  <advance width="1159" height="962"/>
  <unicode hex="0459"/>
  <outline>
    <contour>
      <point x="964" y="303" type="line" smooth="yes"/>
      <point x="1114" y="303"/>
      <point x="1180" y="250"/>
      <point x="1160" y="153" type="curve" smooth="yes"/>
      <point x="1141" y="66"/>
      <point x="1057" y="-10"/>
      <point x="852" y="-10" type="curve" smooth="yes"/>
      <point x="732" y="-10"/>
      <point x="642" y="0"/>
      <point x="627" y="1" type="curve"/>
      <point x="730" y="483" type="line"/>
      <point x="549" y="483" type="line" smooth="yes"/>
      <point x="408" y="483"/>
      <point x="359" y="417"/>
      <point x="332" y="378" type="curve" smooth="yes"/>
      <point x="156" y="112" type="line" smooth="yes"/>
      <point x="113" y="47"/>
      <point x="85" y="18"/>
      <point x="7" y="-8" type="curve"/>
      <point x="1" y="5" type="line"/>
      <point x="90" y="34"/>
      <point x="112" y="77"/>
      <point x="139" y="117" type="curve" smooth="yes"/>
      <point x="320" y="390" type="line" smooth="yes"/>
      <point x="349" y="434"/>
      <point x="409" y="500"/>
      <point x="550" y="500" type="curve" smooth="yes"/>
      <point x="752" y="500" type="line"/>
      <point x="710" y="303" type="line"/>
    </contour>
    <contour>
      <point x="860" y="10" type="curve" smooth="yes"/>
      <point x="1009" y="10"/>
      <point x="1120" y="58"/>
      <point x="1140" y="150" type="curve" smooth="yes"/>
      <point x="1158" y="237"/>
      <point x="1099" y="285"/>
      <point x="955" y="285" type="curve" smooth="yes"/>
      <point x="707" y="285" type="line"/>
      <point x="650" y="20" type="line"/>
      <point x="690" y="17"/>
      <point x="724" y="10"/>
    </contour>
  </outline>
</glyph>
<glyph name="uni045A" format="2">
  <advance width="1111"/>
  <unicode hex="045A"/>
  <outline>
    <contour>
      <point x="905" y="303" type="line" smooth="yes"/>
      <point x="1055" y="303"/>
      <point x="1131" y="251"/>
      <point x="1111" y="153" type="curve" smooth="yes"/>
      <point x="1092" y="66"/>
      <point x="1008" y="-9"/>
      <point x="803" y="-9" type="curve" smooth="yes"/>
      <point x="662" y="-9"/>
      <point x="511" y="3"/>
      <point x="511" y="3" type="curve"/>
      <point x="571" y="285" type="line"/>
      <point x="112" y="285" type="line"/>
      <point x="51" y="-1" type="line"/>
      <point x="32" y="-1" type="line"/>
      <point x="138" y="500" type="line"/>
      <point x="157" y="500" type="line"/>
      <point x="115" y="303" type="line"/>
      <point x="574" y="303" type="line"/>
      <point x="616" y="500" type="line"/>
      <point x="635" y="500" type="line"/>
      <point x="593" y="303" type="line"/>
    </contour>
    <contour>
      <point x="811" y="10" type="curve" smooth="yes"/>
      <point x="960" y="10"/>
      <point x="1071" y="58"/>
      <point x="1091" y="150" type="curve" smooth="yes"/>
      <point x="1109" y="237"/>
      <point x="1040" y="285"/>
      <point x="896" y="285" type="curve" smooth="yes"/>
      <point x="590" y="285" type="line"/>
      <point x="533" y="20" type="line"/>
      <point x="573" y="17"/>
      <point x="675" y="10"/>
    </contour>
  </outline>
</glyph>
<glyph name="uni045F" format="2">
  <advance width="628"/>
  <unicode hex="045F"/>
  <outline>
    <contour>
      <point x="694" y="500" type="line"/>
      <point x="588" y="0" type="line"/>
      <point x="322" y="0" type="line"/>
      <point x="299" y="-97" type="line"/>
      <point x="282" y="-97" type="line"/>
      <point x="301" y="0" type="line"/>
      <point x="35" y="0" type="line"/>
      <point x="141" y="500" type="line"/>
      <point x="159" y="500" type="line"/>
      <point x="57" y="18" type="line"/>
      <point x="573" y="18" type="line"/>
      <point x="675" y="500" type="line"/>
    </contour>
  </outline>
</glyph>
<glyph name="uni0462" format="1">
  <advance width="672" height="962"/>
  <unicode hex="0462"/>
  <outline>
    <component base="uni042C" xOffset="25"/>
    <contour>
      <point x="131" y="617" type="line"/>
      <point x="464" y="617" type="line"/>
      <point x="460" y="599" type="line"/>
      <point x="127" y="599" type="line"/>
    </contour>
  </outline>
</glyph>
<glyph name="uni046B" format="2">
  <advance width="840"/>
  <unicode hex="046B"/>
  <outline>
    <contour>
      <point x="619" y="302" type="line" smooth="yes"/>
      <point x="808" y="302"/>
      <point x="869" y="240"/>
      <point x="841" y="109" type="curve" smooth="yes"/>
      <point x="818" y="0" type="line"/>
      <point x="801" y="0" type="line"/>
      <point x="824" y="109" type="line" smooth="yes"/>
      <point x="852" y="240"/>
      <point x="770" y="285"/>
      <point x="616" y="285" type="curve" smooth="yes"/>
      <point x="490" y="285" type="line"/>
      <point x="429" y="0" type="line"/>
      <point x="411" y="0" type="line"/>
      <point x="472" y="285" type="line"/>
      <point x="349" y="285" type="line" smooth="yes"/>
      <point x="183" y="285"/>
      <point x="94" y="231"/>
      <point x="68" y="109" type="curve" smooth="yes"/>
      <point x="45" y="0" type="line"/>
      <point x="28" y="0" type="line"/>
      <point x="51" y="109" type="line" smooth="yes"/>
      <point x="79" y="240"/>
      <point x="162" y="302"/>
      <point x="352" y="302" type="curve" smooth="yes"/>
      <point x="473" y="302" type="line"/>
      <point x="200" y="500" type="line"/>
      <point x="849" y="500" type="line"/>
      <point x="498" y="302" type="line"/>
    </contour>
    <contour>
      <point x="488" y="315" type="line"/>
      <point x="789" y="483" type="line"/>
      <point x="255" y="483" type="line"/>
    </contour>
  </outline>
</glyph>
<glyph name="uni0490" format="2">
  <advance width="546" height="962"/>
  <unicode hex="0490"/>
  <outline>
    <component base="Gamma"/>
    <contour>
      <point x="703" y="771" type="line"/>
      <point x="727" y="771" type="line"/>
      <point x="710" y="690" type="line"/>
      <point x="681" y="690" type="line"/>
      <point x="683" y="700" type="line"/>
    </contour>
  </outline>
</glyph>
<glyph name="uni0492" format="2">
  <advance width="559"/>
  <unicode hex="0492"/>
  <outline>
    <component base="Gamma" xOffset="10"/>
    <contour>
      <point x="87" y="414" type="line"/>
      <point x="552" y="414" type="line"/>
      <point x="548" y="394" type="line"/>
      <point x="83" y="394" type="line"/>
    </contour>
  </outline>
</glyph>
<glyph name="uni0494" format="2">
  <advance width="623"/>
  <unicode hex="0494"/>
  <outline>
    <component base="Gamma"/>
    <contour>
      <point x="436" y="510" type="curve" smooth="yes"/>
      <point x="570" y="510"/>
      <point x="691" y="485"/>
      <point x="661" y="345" type="curve" smooth="yes"/>
      <point x="616" y="131" type="line" smooth="yes"/>
      <point x="599" y="53"/>
      <point x="542" y="8"/>
      <point x="427" y="-14" type="curve"/>
      <point x="424" y="3" type="line"/>
      <point x="528" y="26"/>
      <point x="581" y="58"/>
      <point x="597" y="131" type="curve" smooth="yes"/>
      <point x="643" y="346" type="line" smooth="yes"/>
      <point x="665" y="453"/>
      <point x="583" y="494"/>
      <point x="439" y="494" type="curve" smooth="yes"/>
      <point x="363" y="494"/>
      <point x="237" y="479"/>
      <point x="155" y="454" type="curve"/>
      <point x="158" y="472" type="line"/>
      <point x="211" y="486"/>
      <point x="330" y="510"/>
    </contour>
  </outline>
</glyph>
<glyph name="uni0496" format="1">
  <advance width="1000" height="962"/>
  <unicode hex="0496"/>
  <outline>
    <component base="uni0416"/>
    <contour>
      <point x="960" y="18" type="line"/>
      <point x="984" y="18" type="line"/>
      <point x="962" y="-87" type="line"/>
      <point x="944" y="-87" type="line"/>
      <point x="960" y="0" type="line"/>
      <point x="956" y="0" type="line"/>
    </contour>
  </outline>
</glyph>
<glyph name="uni049C" format="2">
  <advance width="764" height="962"/>
  <unicode hex="049C"/>
  <outline>
    <contour>
      <point x="740" y="0" type="line"/>
      <point x="714" y="0" type="line"/>
      <point x="410" y="393" type="line"/>
      <point x="293" y="393" type="line"/>
      <point x="277" y="322" type="line"/>
      <point x="257" y="322" type="line"/>
      <point x="273" y="393" type="line"/>
      <point x="144" y="393" type="line"/>
      <point x="60" y="0" type="line"/>
      <point x="41" y="0" type="line"/>
      <point x="190" y="700" type="line"/>
      <point x="209" y="700" type="line"/>
      <point x="148" y="413" type="line"/>
      <point x="277" y="413" type="line"/>
      <point x="292" y="484" type="line"/>
      <point x="312" y="484" type="line"/>
      <point x="297" y="413" type="line"/>
      <point x="402" y="413" type="line"/>
      <point x="784" y="700" type="line"/>
      <point x="811" y="700" type="line"/>
      <point x="425" y="408" type="line"/>
    </contour>
  </outline>
</glyph>
<glyph name="uni04A2" format="2">
  <advance width="723"/>
  <unicode hex="04A2"/>
  <outline>
    <contour>
      <point x="672" y="18" type="line"/>
      <point x="702" y="18" type="line"/>
      <point x="680" y="-87" type="line"/>
      <point x="663" y="-87" type="line"/>
      <point x="677" y="0" type="line"/>
      <point x="668" y="0" type="line"/>
    </contour>
    <contour>
      <point x="748" y="412" type="line"/>
      <point x="809" y="700" type="line"/>
      <point x="827" y="700" type="line"/>
      <point x="678" y="0" type="line"/>
      <point x="660" y="0" type="line"/>
      <point x="744" y="394" type="line"/>
      <point x="142" y="394" type="line"/>
      <point x="59" y="0" type="line"/>
      <point x="41" y="0" type="line"/>
      <point x="189" y="700" type="line"/>
      <point x="207" y="700" type="line"/>
      <point x="146" y="412" type="line"/>
    </contour>
  </outline>
</glyph>
<glyph name="uni04A4" format="1">
  <advance width="776" height="962"/>
  <unicode hex="04A4"/>
  <outline>
    <component base="H"/>
    <contour>
      <point x="814" y="700" type="line"/>
      <point x="915" y="700" type="line"/>
      <point x="911" y="683" type="line"/>
      <point x="823" y="680" type="line"/>
      <point x="810" y="680" type="line"/>
    </contour>
  </outline>
</glyph>
<glyph name="uni04B1" format="2">
  <advance width="616" height="962"/>
  <unicode hex="04B1"/>
  <outline>
    <component base="uni04AF"/>
    <contour>
      <point x="152" y="20" type="line"/>
      <point x="473" y="20" type="line"/>
      <point x="469" y="0" type="line"/>
      <point x="148" y="0" type="line"/>
    </contour>
  </outline>
</glyph>
<glyph name="uni04B3" format="1">
  <advance width="528" height="962"/>
  <unicode hex="04B3"/>
  <outline>
    <component base="x"/>
    <contour>
      <point x="517" y="18" type="line"/>
      <point x="562" y="18" type="line"/>
      <point x="540" y="-87" type="line"/>
      <point x="516" y="-87" type="line"/>
      <point x="530" y="0" type="line"/>
      <point x="513" y="0" type="line"/>
    </contour>
  </outline>
</glyph>
<glyph name="uni04B8" format="2">
  <advance width="708" height="962"/>
  <unicode hex="04B8"/>
  <outline>
    <component base="uni0427"/>
    <contour>
      <point x="416" y="336" type="line"/>
      <point x="437" y="336" type="line"/>
      <point x="402" y="170" type="line"/>
      <point x="381" y="170" type="line"/>
    </contour>
  </outline>
</glyph>
<glyph name="uni04D8" format="2">
  <advance width="699"/>
  <unicode hex="04D8"/>
  <outline>
    <contour>
      <point x="526" y="710" type="curve" smooth="yes"/>
      <point x="676" y="710"/>
      <point x="809" y="670"/>
      <point x="778" y="524" type="curve" smooth="yes"/>
      <point x="704" y="176" type="line" smooth="yes"/>
      <point x="676" y="43"/>
      <point x="539" y="-11"/>
      <point x="350" y="-11" type="curve" smooth="yes"/>
      <point x="175" y="-11"/>
      <point x="42" y="36"/>
      <point x="71" y="176" type="curve" smooth="yes"/>
      <point x="105" y="335" type="line"/>
      <point x="721" y="353" type="line"/>
      <point x="757" y="524" type="line" smooth="yes"/>
      <point x="782" y="642"/>
      <point x="691" y="691"/>
      <point x="517" y="691" type="curve" smooth="yes"/>
      <point x="454" y="691"/>
      <point x="382" y="683"/>
      <point x="311" y="660" type="curve"/>
      <point x="306" y="677" type="line"/>
      <point x="371" y="699"/>
      <point x="445" y="710"/>
    </contour>
    <contour>
      <point x="354" y="8" type="curve" smooth="yes"/>
      <point x="518" y="8"/>
      <point x="656" y="46"/>
      <point x="683" y="175" type="curve" smooth="yes"/>
      <point x="717" y="335" type="line"/>
      <point x="120" y="317" type="line"/>
      <point x="90" y="175" type="line" smooth="yes"/>
      <point x="63" y="46"/>
      <point x="195" y="8"/>
    </contour>
  </outline>
</glyph>
<glyph name="uni1E9E" format="2">
  <advance width="662"/>
  <unicode hex="1E9E"/>
  <outline>
    <contour>
      <point x="189" y="700" type="line"/>
      <point x="704" y="700" type="line"/>
      <point x="700" y="680" type="line"/>
      <point x="343" y="414" type="line"/>
      <point x="428" y="414" type="line" smooth="yes"/>
      <point x="605" y="414"/>
      <point x="711" y="340"/>
      <point x="681" y="202" type="curve" smooth="yes"/>
      <point x="653" y="73"/>
      <point x="512" y="-12"/>
      <point x="322" y="-12" type="curve" smooth="yes"/>
      <point x="230.112" y="-12"/>
      <point x="161.664" y="8.64958"/>
      <point x="113.32" y="42.8609" type="curve"/>
      <point x="127.241" y="61.7281" type="line"/>
      <point x="174.952" y="25.5673"/>
      <point x="242.263" y="7"/>
      <point x="317" y="7" type="curve" smooth="yes"/>
      <point x="504" y="7"/>
      <point x="636" y="83"/>
      <point x="663" y="208" type="curve" smooth="yes"/>
      <point x="689" y="325"/>
      <point x="584" y="394"/>
      <point x="433" y="394" type="curve" smooth="yes"/>
      <point x="286" y="394" type="line"/>
      <point x="673" y="680" type="line"/>
      <point x="205" y="680" type="line"/>
      <point x="60" y="0" type="line"/>
      <point x="41" y="0" type="line"/>
    </contour>
  </outline>
</glyph>
<glyph name="emdash" format="2">
	<advance width="1042"/>
	<unicode hex="2014"/>
	<outline>
		<contour>
			<point x="117" y="394" type="line"/>
			<point x="121" y="414" type="line"/>
			<point x="1081" y="414" type="line"/>
			<point x="1077" y="394" type="line"/>
		</contour>
	</outline>
</glyph>
<glyph name="quotesinglbase" format="2">
  <advance width="114"/>
  <unicode hex="201A"/>
  <outline>
    <contour>
      <point x="24" y="-31" type="line"/>
      <point x="48" y="-13"/>
      <point x="58" y="11"/>
      <point x="62" y="24" type="curve"/>
      <point x="57" y="27"/>
      <point x="53" y="32"/>
      <point x="55" y="40" type="curve" smooth="yes"/>
      <point x="57" y="51"/>
      <point x="65" y="57"/>
      <point x="74" y="57" type="curve" smooth="yes"/>
      <point x="85" y="57"/>
      <point x="90" y="51"/>
      <point x="88" y="40" type="curve"/>
      <point x="77" y="-13"/>
      <point x="32" y="-37"/>
      <point x="32" y="-37" type="curve"/>
    </contour>
  </outline>
</glyph>
<glyph name="bullet" format="1">
  <advance width="269" height="962"/>
  <unicode hex="2022"/>
  <outline>
    <contour>
      <point x="294" y="409" type="curve" smooth="yes"/>
      <point x="309" y="388"/>
      <point x="314" y="364"/>
      <point x="308" y="336" type="curve" smooth="yes"/>
      <point x="303" y="310"/>
      <point x="285" y="284"/>
      <point x="263" y="264" type="curve"/>
      <point x="238" y="243"/>
      <point x="212" y="233"/>
      <point x="184" y="233" type="curve" smooth="yes"/>
      <point x="155" y="233"/>
      <point x="132" y="243"/>
      <point x="116" y="264" type="curve" smooth="yes"/>
      <point x="100" y="284"/>
      <point x="95" y="308"/>
      <point x="101" y="336" type="curve" smooth="yes"/>
      <point x="108" y="365"/>
      <point x="123" y="389"/>
      <point x="147" y="409" type="curve" smooth="yes"/>
      <point x="171" y="430"/>
      <point x="199" y="440"/>
      <point x="228" y="440" type="curve" smooth="yes"/>
      <point x="256" y="440"/>
      <point x="277" y="430"/>
    </contour>
  </outline>
</glyph>
<glyph name="guilsinglright" format="2">
  <advance width="395"/>
  <unicode hex="203A"/>
  <outline>
    <contour>
      <point x="365" y="267" type="line"/>
      <point x="141" y="441" type="line"/>
      <point x="168" y="455" type="line"/>
      <point x="408" y="267" type="line"/>
      <point x="88" y="79" type="line"/>
      <point x="69" y="97" type="line"/>
    </contour>
  </outline>
</glyph>
<glyph name="uni20AE" format="2">
  <advance width="614"/>
  <unicode hex="20AE"/>
  <outline>
    <component base="T"/>
    <contour>
      <point x="605" y="419" type="line"/>
      <point x="609" y="403" type="line"/>
      <point x="143" y="271" type="line"/>
      <point x="141" y="287" type="line"/>
    </contour>
    <contour>
      <point x="617" y="489" type="line"/>
      <point x="619" y="472" type="line"/>
      <point x="153" y="340" type="line"/>
      <point x="153" y="357" type="line"/>
    </contour>
  </outline>
</glyph>
<glyph name="uni20B4" format="2">
  <advance width="762"/>
  <unicode hex="20B4"/>
  <outline>
    <contour>
      <point x="121" y="394" type="line"/>
      <point x="125" y="412" type="line"/>
      <point x="770" y="412" type="line"/>
      <point x="766" y="394" type="line"/>
    </contour>
    <contour>
      <point x="107" y="331" type="line"/>
      <point x="111" y="350" type="line"/>
      <point x="756" y="350" type="line"/>
      <point x="752" y="331" type="line"/>
    </contour>
    <contour>
      <point x="258" y="653" type="curve"/>
      <point x="255" y="672" type="line"/>
      <point x="332" y="697"/>
      <point x="419" y="710"/>
      <point x="502" y="710" type="curve" smooth="yes"/>
      <point x="650" y="710"/>
      <point x="819" y="665"/>
      <point x="795" y="549" type="curve" smooth="yes"/>
      <point x="748" y="330"/>
      <point x="123" y="397"/>
      <point x="74" y="167" type="curve" smooth="yes"/>
      <point x="49" y="48"/>
      <point x="221" y="7"/>
      <point x="376" y="7" type="curve" smooth="yes"/>
      <point x="505" y="7"/>
      <point x="648" y="39"/>
      <point x="745" y="111" type="curve"/>
      <point x="754" y="99" type="line"/>
      <point x="659" y="22"/>
      <point x="507" y="-12"/>
      <point x="370" y="-12" type="curve" smooth="yes"/>
      <point x="202" y="-12"/>
      <point x="29" y="39"/>
      <point x="56" y="167" type="curve" smooth="yes"/>
      <point x="109" y="416"/>
      <point x="732" y="347"/>
      <point x="775" y="550" type="curve" smooth="yes"/>
      <point x="797" y="652"/>
      <point x="633" y="693"/>
      <point x="502" y="693" type="curve" smooth="yes"/>
      <point x="426" y="693"/>
      <point x="328" y="680"/>
    </contour>
  </outline>
  <guideline angle="90" x="459.98" y="0"/>
  <guideline angle="0" x="0" y="586"/>
</glyph>
<glyph name="trademark" format="2">
  <advance width="642" height="962"/>
  <unicode hex="2122"/>
  <outline>
    <contour>
      <point x="325" y="680" type="line"/>
      <point x="289" y="514" type="line"/>
      <point x="261" y="514" type="line"/>
      <point x="297" y="680" type="line"/>
      <point x="178" y="680" type="line"/>
      <point x="182" y="700" type="line"/>
      <point x="482" y="700" type="line"/>
      <point x="551" y="533" type="line"/>
      <point x="697" y="700" type="line"/>
      <point x="739" y="700" type="line"/>
      <point x="699" y="514" type="line"/>
      <point x="675" y="514" type="line"/>
      <point x="711" y="680" type="line"/>
      <point x="564" y="514" type="line"/>
      <point x="532" y="514" type="line"/>
      <point x="459" y="680" type="line"/>
      <point x="423" y="514" type="line"/>
      <point x="394" y="514" type="line"/>
      <point x="430" y="680" type="line"/>
    </contour>
  </outline>
</glyph>
<glyph name="Y_upper_alt" format="2">
  <advance width="720"/>
  <unicode hex="9997"/>
  <outline>
    <contour>
      <point x="439" y="342" type="line"/>
      <point x="366" y="0" type="line"/>
      <point x="348" y="0" type="line"/>
      <point x="421" y="342" type="line"/>
      <point x="153" y="700" type="line"/>
      <point x="177" y="700" type="line"/>
      <point x="433" y="356" type="line"/>
      <point x="837" y="700" type="line"/>
      <point x="861" y="700" type="line"/>
    </contour>
  </outline>
</glyph>
<glyph name="y_lower_alt" format="2">
  <advance width="712"/>
  <unicode hex="9998"/>
  <outline>
    <contour>
      <point x="154" y="-209" type="line"/>
      <point x="347" y="9" type="line"/>
      <point x="121" y="500" type="line"/>
      <point x="142" y="500" type="line"/>
      <point x="361" y="27" type="line"/>
      <point x="780" y="500" type="line"/>
      <point x="801" y="500" type="line"/>
      <point x="175" y="-209" type="line"/>
    </contour>
  </outline>
</glyph>
<glyph name="ff" format="1">
  <advance width="710" height="962"/>
  <unicode hex="FB00"/>
  <outline>
    <contour>
      <point x="827" y="666" type="line"/>
      <point x="798" y="675"/>
      <point x="767" y="680"/>
      <point x="733" y="680" type="curve" smooth="yes"/>
      <point x="661" y="680"/>
      <point x="546" y="650"/>
      <point x="527" y="561" type="curve" smooth="yes"/>
      <point x="514" y="500" type="line"/>
      <point x="749" y="500" type="line"/>
      <point x="740" y="484" type="line"/>
      <point x="511" y="484" type="line"/>
      <point x="408" y="0" type="line"/>
      <point x="388" y="0" type="line"/>
      <point x="507" y="562" type="line" smooth="yes"/>
      <point x="515" y="596"/>
      <point x="536" y="627"/>
      <point x="567" y="651" type="curve"/>
      <point x="529" y="677"/>
      <point x="467" y="687"/>
      <point x="411" y="687" type="curve" smooth="yes"/>
      <point x="306" y="687"/>
      <point x="200" y="663"/>
      <point x="180" y="569" type="curve" smooth="yes"/>
      <point x="165" y="500" type="line"/>
      <point x="401" y="500" type="line"/>
      <point x="392" y="484" type="line"/>
      <point x="162" y="484" type="line"/>
      <point x="59" y="0" type="line"/>
      <point x="39" y="0" type="line"/>
      <point x="161" y="572" type="line" smooth="yes"/>
      <point x="183" y="678"/>
      <point x="303" y="704"/>
      <point x="402" y="706" type="curve" smooth="yes"/>
      <point x="475" y="708"/>
      <point x="531" y="699"/>
      <point x="592" y="664" type="curve"/>
      <point x="638" y="688"/>
      <point x="687" y="700"/>
      <point x="738" y="700" type="curve" smooth="yes"/>
      <point x="773" y="700"/>
      <point x="817" y="694"/>
      <point x="836" y="683" type="curve"/>
    </contour>
  </outline>
</glyph>
<glyph name="fl" format="1">
  <advance width="479" height="962"/>
  <unicode hex="FB02"/>
  <outline>
    <contour>
      <point x="556" y="646" type="line"/>
      <point x="517" y="673"/>
      <point x="465" y="687"/>
      <point x="414" y="688" type="curve" smooth="yes"/>
      <point x="310" y="690"/>
      <point x="200" y="664"/>
      <point x="181" y="575" type="curve" smooth="yes"/>
      <point x="165" y="500" type="line"/>
      <point x="401" y="500" type="line"/>
      <point x="393" y="484" type="line"/>
      <point x="162" y="484" type="line"/>
      <point x="59" y="0" type="line"/>
      <point x="39" y="0" type="line"/>
      <point x="160" y="570" type="line" smooth="yes"/>
      <point x="186" y="691"/>
      <point x="327" y="706"/>
      <point x="415" y="706" type="curve" smooth="yes"/>
      <point x="478" y="706"/>
      <point x="528" y="689"/>
      <point x="579" y="658" type="curve"/>
      <point x="439" y="0" type="line"/>
      <point x="419" y="0" type="line"/>
    </contour>
  </outline>
</glyph>
<glyph name="ffl" format="2">
  <advance width="825"/>
  <unicode hex="FB04"/>
  <outline>
    <contour>
      <point x="903" y="644" type="line"/>
      <point x="864" y="672"/>
      <point x="806" y="688"/>
      <point x="753" y="688" type="curve"/>
      <point x="679" y="687"/>
      <point x="543" y="655"/>
      <point x="523" y="560" type="curve" smooth="yes"/>
      <point x="510" y="500" type="line"/>
      <point x="746" y="500" type="line"/>
      <point x="738" y="484" type="line"/>
      <point x="507" y="484" type="line"/>
      <point x="404" y="0" type="line"/>
      <point x="384" y="0" type="line"/>
      <point x="503" y="561" type="line" smooth="yes"/>
      <point x="511" y="596"/>
      <point x="535" y="627"/>
      <point x="569" y="652" type="curve"/>
      <point x="526" y="678"/>
      <point x="468" y="688"/>
      <point x="411" y="689" type="curve" smooth="yes"/>
      <point x="309" y="691"/>
      <point x="200" y="664"/>
      <point x="180" y="569" type="curve" smooth="yes"/>
      <point x="165" y="500" type="line"/>
      <point x="401" y="500" type="line"/>
      <point x="393" y="484" type="line"/>
      <point x="162" y="484" type="line"/>
      <point x="59" y="0" type="line"/>
      <point x="39" y="0" type="line"/>
      <point x="160" y="571" type="line" smooth="yes"/>
      <point x="184" y="680"/>
      <point x="310" y="706"/>
      <point x="402" y="706" type="curve" smooth="yes"/>
      <point x="462" y="706"/>
      <point x="517" y="699"/>
      <point x="590" y="664" type="curve"/>
      <point x="631" y="687"/>
      <point x="694" y="705"/>
      <point x="760" y="705" type="curve"/>
      <point x="825" y="704"/>
      <point x="877" y="687"/>
      <point x="923" y="656" type="curve"/>
      <point x="784" y="0" type="line"/>
      <point x="766" y="0" type="line"/>
    </contour>
  </outline>
</glyph>
<glyph name="commaturnedabove" format="1">
  <advance width="267" height="962"/>
  <outline>
    <contour>
      <point x="303" y="681" type="line"/>
      <point x="280" y="663"/>
      <point x="270" y="641"/>
      <point x="265" y="626" type="curve"/>
      <point x="270" y="623"/>
      <point x="274" y="618"/>
      <point x="273" y="610" type="curve" smooth="yes"/>
      <point x="271" y="600"/>
      <point x="262" y="594"/>
      <point x="253" y="594" type="curve" smooth="yes"/>
      <point x="243" y="594"/>
      <point x="238" y="600"/>
      <point x="240" y="610" type="curve" smooth="yes"/>
      <point x="251" y="663"/>
      <point x="295" y="687"/>
      <point x="295" y="687" type="curve"/>
    </contour>
  </outline>
</glyph>
<glyph name="descendercomb" format="2">
  <advance width="267"/>
  <outline>
    <contour>
      <point x="120" y="6" type="line"/>
      <point x="136" y="5" type="line"/>
      <point x="135" y="-2" type="line"/>
      <point x="185" y="-110" type="line" smooth="yes"/>
      <point x="213" y="-170"/>
      <point x="137" y="-243"/>
      <point x="72" y="-221" type="curve" smooth="yes"/>
      <point x="-7" y="-194" type="line"/>
      <point x="3" y="-174" type="line"/>
      <point x="69" y="-200" type="line" smooth="yes"/>
      <point x="129" y="-224"/>
      <point x="188" y="-170"/>
      <point x="167" y="-119" type="curve" smooth="yes"/>
      <point x="118" y="-3" type="line"/>
    </contour>
  </outline>
</glyph>
<glyph name="gamma_kappa" format="2">
  <advance width="1324" height="962"/>
  <outline>
    <component base="kappa" xOffset="706.5"/>
    <contour>
      <point x="853" y="496" type="line"/>
      <point x="757" y="504"/>
      <point x="722" y="467"/>
      <point x="690" y="417" type="curve" smooth="yes"/>
      <point x="350" y="-92" type="line" smooth="yes"/>
      <point x="321" y="-135"/>
      <point x="259" y="-199"/>
      <point x="119" y="-199" type="curve"/>
      <point x="116" y="-180" type="line"/>
      <point x="258" y="-180"/>
      <point x="310" y="-118"/>
      <point x="336" y="-79" type="curve" smooth="yes"/>
      <point x="385" y="-6" type="line"/>
      <point x="283" y="-2"/>
      <point x="228" y="48"/>
      <point x="209" y="129" type="curve" smooth="yes"/>
      <point x="125" y="500" type="line"/>
      <point x="144" y="500" type="line"/>
      <point x="227" y="140" type="line" smooth="yes"/>
      <point x="246" y="56"/>
      <point x="303" y="14"/>
      <point x="399" y="14" type="curve"/>
      <point x="675" y="427" type="line" smooth="yes"/>
      <point x="719" y="492"/>
      <point x="763" y="519"/>
      <point x="854" y="511" type="curve"/>
    </contour>
  </outline>
</glyph>
<glyph name="t_t" format="1">
  <advance width="576" height="962"/>
  <outline>
    <component base="t" xOffset="247.5"/>
    <contour>
      <point x="86" y="122" type="line" smooth="yes"/>
      <point x="70" y="49"/>
      <point x="113" y="20"/>
      <point x="210" y="4" type="curve"/>
      <point x="202" y="-13" type="line"/>
      <point x="95" y="2"/>
      <point x="49" y="44"/>
      <point x="66" y="122" type="curve" smooth="yes"/>
      <point x="189" y="700" type="line"/>
      <point x="209" y="700" type="line"/>
      <point x="166" y="500" type="line"/>
      <point x="403" y="500" type="line"/>
      <point x="399" y="482" type="line"/>
      <point x="162" y="482" type="line"/>
    </contour>
  </outline>
</glyph>
